<?xml version="1.0" encoding="UTF-8" standalone="no"?>
<!-- Created with Inkscape (http://www.inkscape.org/) -->

<svg
   xmlns:dc="http://purl.org/dc/elements/1.1/"
   xmlns:cc="http://creativecommons.org/ns#"
   xmlns:rdf="http://www.w3.org/1999/02/22-rdf-syntax-ns#"
   xmlns:svg="http://www.w3.org/2000/svg"
   xmlns="http://www.w3.org/2000/svg"
   xmlns:sodipodi="http://sodipodi.sourceforge.net/DTD/sodipodi-0.dtd"
   xmlns:inkscape="http://www.inkscape.org/namespaces/inkscape"
   width="150mm"
   height="150mm"
   viewBox="0 0 150 150"
   version="1.1"
   id="svg8"
   inkscape:version="0.92.3 (2405546, 2018-03-11)"
   sodipodi:docname="shajara-logo.svg">
  <sodipodi:namedview
     id="base"
     pagecolor="#ffffff"
     bordercolor="#666666"
     borderopacity="1.0"
     inkscape:pageopacity="0.0"
     inkscape:pageshadow="2"
     inkscape:zoom="0.49497475"
     inkscape:cx="447.64336"
     inkscape:cy="389.79101"
     inkscape:document-units="mm"
     inkscape:current-layer="layer1"
     showgrid="false"
     inkscape:window-width="1366"
     inkscape:window-height="708"
     inkscape:window-x="0"
     inkscape:window-y="0"
     inkscape:window-maximized="1" />
  <defs
     id="defs2" />
  <metadata
     id="metadata5">
    <rdf:RDF>
      <cc:Work
         rdf:about="">
        <dc:format>image/svg+xml</dc:format>
        <dc:type
           rdf:resource="http://purl.org/dc/dcmitype/StillImage" />
        <dc:title></dc:title>
      </cc:Work>
    </rdf:RDF>
  </metadata>
  <g
     id="layer1"
     inkscape:groupmode="layer"
     inkscape:label="Calque 1"
     transform="translate(0,-147)">
    <g
       id="g1051"
       transform="matrix(1,0,0,-1,0,440.43271)">
      <path
         inkscape:connector-curvature="0"
         d="m 77.241858,275.96647 v -26.45833 l 8.94799,-16.07561 11.33434,-9.06186 11.865332,0.23622 8.92778,4.38465 4.83931,5.48093 1.76345,5.53981 -0.29681,4.95752 -1.76604,2.15687 1.76604,-2.15687 1.14974,3.2094 -0.8656,2.51743 0.8656,-2.51743 -1.14974,-3.2094 0.29681,-4.95752 2.81105,3.53298 0.6347,3.04007 1.50364,2.29158 -1.50364,-2.29158 -0.6347,-3.04007 3.8263,1.06458 1.81145,2.01182 -1.81145,-2.01182 2.56011,-0.75053 -2.56011,0.75053 -3.8263,-1.06458 -2.81105,-3.53298 -1.76345,-5.53981 3.62689,1.0585 1.99334,1.7844 -1.99334,-1.7844 -3.62689,-1.0585 -4.83931,-5.48093 5.21686,-0.24207 2.46584,1.07972 -2.46584,-1.07972 4.15825,-1.79902 2.89194,-0.0258 -2.89194,0.0258 1.85562,-2.62179 2.48688,-1.3978 -2.48688,1.3978 -1.85562,2.62179 -4.15825,1.79902 -5.21686,0.24207 -8.92778,-4.38465 8.27531,-2.86033 6.53259,0.83605 4.26487,3.36221 1.02942,4.67501 -1.26557,2.50698 1.26557,-2.50698 2.07817,1.85972 -2.07817,-1.85972 -1.02942,-4.67501 3.81441,0.0296 2.14445,1.78854 -2.14445,-1.78854 -3.81441,-0.0296 -4.26487,-3.36221 5.07383,-1.52373 2.84921,0.48458 -2.84921,-0.48458 1.97389,-1.96446 -1.97389,1.96446 -5.07383,1.52373 -6.53259,-0.83605 4.53453,-5.72395 3.52399,-1.78982 1.74278,-2.02358 -1.74278,2.02358 -3.52399,1.78982 1.18011,-5.19392 3.52228,-2.98958 3.00361,-0.41563 -3.00361,0.41563 1.45711,-3.46226 -0.25771,-3.18608 0.25771,3.18608 -1.45711,3.46226 -3.52228,2.98958 -1.29344,-4.3392 0.62269,-2.87948 -0.62269,2.87948 -3.01517,-2.57149 -0.57621,-3.07385 -2.02778,-1.89554 2.02778,1.89554 0.57621,3.07385 3.01517,2.57149 1.29344,4.3392 -1.18011,5.19392 -4.53453,5.72395 -8.27531,2.86033 -11.865332,-0.23622 3.664872,-6.49298 3.98311,-2.31789 3.43403,-0.21139 2.49465,1.17758 -2.49465,-1.17758 -3.43403,0.21139 1.91057,-3.59121 2.44756,-1.0669 -2.44756,1.0669 -0.4714,-2.97577 0.4714,2.97577 -1.91057,3.59121 -3.98311,2.31789 0.10429,-4.41873 2.22582,-2.66668 2.76348,-0.95046 -2.76348,0.95046 -2.22582,2.66668 -1.23024,-2.5676 1.23024,2.5676 -0.10429,4.41873 -3.664872,6.49298 -11.33434,9.06186 -2.58097,-15.15914 4.98649,-9.0601 6.05425,-4.64049 3.96915,-1.15968 2.818422,0.86784 -2.818422,-0.86784 2.351152,-2.3827 0.81185,-2.70699 -0.81185,2.70699 -2.351152,2.3827 -3.96915,1.15968 3.18915,-5.68987 2.752642,-1.91465 -2.752642,1.91465 0.28994,-3.36846 -0.28994,3.36846 -3.18915,5.68987 -6.05425,4.64049 -0.18875,-8.50326 2.71685,-6.76391 3.4599,-3.222 3.90492,-0.21602 3.147862,1.43451 1.55274,2.63414 -1.55274,-2.63414 -3.147862,-1.43451 -3.90492,0.21602 0.75311,-2.63807 -0.75311,2.63807 -3.4599,3.222 -1.26346,-3.99886 1.26346,3.99886 -2.71685,6.76391 -3.54202,-5.85488 0.0681,-4.08122 -1.26231,-2.32957 1.26231,2.32957 -0.0681,4.08122 -4.23111,-2.28961 -3.03384,0.11997 -2.20148,1.50245 2.20148,-1.50245 3.03384,-0.11997 4.23111,2.28961 3.54202,5.85488 0.18875,8.50326 -4.98649,9.0601 -7.00088,-10.41837 -0.53681,-6.2803 2.69635,-4.38738 3.75889,-1.99227 1.41477,-2.92572 -0.14342,-2.64667 0.14342,2.64667 -1.41477,2.92572 -3.75889,1.99227 -0.2039,-3.9795 1.20687,-3.25018 2.10868,-1.77122 -2.10868,1.77122 -1.20687,3.25018 -2.20708,-2.45719 2.20708,2.45719 0.2039,3.9795 -2.69635,4.38738 -2.56777,-3.14508 -0.14239,-3.21362 0.14239,3.21362 -2.86099,-0.70679 2.86099,0.70679 2.56777,3.14508 0.53681,6.2803 -8.55354,-4.7129 -2.05851,-4.46312 0.30946,-2.71835 -0.30946,2.71835 -2.9057,-1.78559 2.9057,1.78559 2.05851,4.46312 -8.04336,1.24508 -6.214941,-1.58132 -3.532426,-2.60076 -1.616085,-3.16338 0.604249,-2.83549 -0.604249,2.83549 -2.058158,-1.76881 2.058158,1.76881 1.616085,3.16338 3.532426,2.60076 -5.583322,1.38258 -3.500024,-1.16667 -2.178513,-1.88501 2.178513,1.88501 -2.93901,0.37993 2.93901,-0.37993 3.500024,1.16667 -3.420884,2.95284 -3.171218,0.50008 3.171218,-0.50008 -1.040236,3.71603 -2.427675,2.20034 -1.068085,2.67288 1.068085,-2.67288 2.427675,-2.20034 1.017368,2.9399 1.98592,1.84457 -1.98592,-1.84457 -1.017368,-2.9399 1.040236,-3.71603 3.420884,-2.95284 5.583322,-1.38258 6.214941,1.58132 -3.643235,2.04085 -2.976277,-0.40468 2.976277,0.40468 -1.347238,2.8762 1.347238,-2.8762 3.643235,-2.04085 8.04336,-1.24508 8.55354,4.7129 7.00088,10.41837 2.58097,15.15914 -8.94799,16.07561 -10.26038,-19.49424 1.89033,-11.91054 5.07461,-8.3927 5.8327,-3.00364 4.33481,-0.18244 3.06517,1.01351 -3.06517,-1.01351 2.05078,-1.70716 -2.05078,1.70716 -4.33481,0.18244 3.00787,-5.04077 4.11397,-1.89648 2.11171,-2.61596 -2.11171,2.61596 -4.11397,1.89648 -0.25153,-5.08061 2.07277,-3.76795 2.8627,-2.39198 1.03222,-2.89738 -1.03222,2.89738 -2.8627,2.39198 -0.19589,-3.2385 0.19589,3.2385 -2.07277,3.76795 -2.10964,-3.55829 -2.55928,-1.99864 2.55928,1.99864 2.10964,3.55829 0.25153,5.08061 -3.00787,5.04077 -5.8327,3.00364 -0.61443,-7.46553 1.07319,-3.69418 2.78433,-1.87229 2.71294,-0.52578 -2.71294,0.52578 -2.78433,1.87229 -1.07319,3.69418 -2.05056,-4.28724 0.81512,-3.41878 -0.91982,-2.73632 0.91982,2.73632 -0.81512,3.41878 2.05056,4.28724 0.61443,7.46553 -5.07461,8.3927 -1.23608,-5.9586 0.81261,-3.83335 2.36104,-1.86876 -2.36104,1.86876 -0.81261,3.83335 -2.21427,-2.51716 2.21427,2.51716 1.23608,5.9586 -1.89033,11.91054 -10.061867,-6.25573 -3.324743,-6.83536 -0.340231,-4.32261 -2.156851,-2.75743 2.156851,2.75743 0.340231,4.32261 -4.939117,-3.24015 -1.357644,-2.65803 1.357644,2.65803 -3.015197,0.0187 3.015197,-0.0187 4.939117,3.24015 3.324743,6.83536 -5.969821,-0.39818 -4.025986,-3.13232 -1.680301,-2.91157 -0.09158,-2.68878 0.09158,2.68878 -2.462609,-1.53913 2.462609,1.53913 1.680301,2.91157 -4.01632,-0.34152 -2.811702,-1.43974 2.811702,1.43974 -2.903208,0.7945 2.903208,-0.7945 4.01632,0.34152 4.025986,3.13232 -3.41466,1.05872 -2.769398,-0.67211 2.769398,0.67211 -1.753141,2.04798 1.753141,-2.04798 3.41466,-1.05872 5.969821,0.39818 10.061867,6.25573 10.26038,19.49424 v 26.45833"
         style="fill:none;fill-opacity:1;stroke:#002a00;stroke-width:1.26499999;stroke-linecap:butt;stroke-linejoin:miter;stroke-miterlimit:4;stroke-dasharray:none;stroke-opacity:1"
         id="path874" />
      <path
         inkscape:connector-curvature="0"
         id="path886"
         style="fill:none;fill-opacity:1;stroke:#002a00;stroke-width:1.26499999;stroke-linecap:butt;stroke-linejoin:miter;stroke-miterlimit:4;stroke-dasharray:none;stroke-opacity:1"
         d="m 77.241858,275.96647 v -26.45833 l 13.84818,-17.35384 11.240262,-6.44203 9.21813,0.29222 6.72963,3.14951 2.95161,5.79402 -0.0501,3.43491 1.01746,2.37008 1.79943,1.35936 -1.79943,-1.35936 -1.01746,-2.37008 0.0501,-3.43491 4.01567,1.77737 1.29945,2.25129 -1.29945,-2.25129 2.25066,0.1341 -2.25066,-0.1341 -4.01567,-1.77737 -2.95161,-5.79402 4.71469,-0.69234 3.6408,1.78976 1.75498,1.94781 -1.75498,-1.94781 2.18585,-0.47805 -2.18585,0.47805 -3.6408,-1.78976 3.46762,-1.90593 2.31059,0.0312 -2.31059,-0.0312 1.47207,-2.90665 2.34484,-1.49719 0.91684,-2.05365 -0.91684,2.05365 -2.34484,1.49719 -1.47207,2.90665 -3.46762,1.90593 -4.71469,0.69234 -6.72963,-3.14951 6.3093,-4.20326 6.67317,-0.78012 4.93809,2.47536 2.44309,3.59187 0.63695,2.86295 -0.63695,-2.86295 3.21499,1.15092 1.50524,2.39601 -1.50524,-2.39601 2.75445,-0.2166 -2.75445,0.2166 -3.21499,-1.15092 -2.44309,-3.59187 2.92883,0.28504 -2.92883,-0.28504 -4.93809,-2.47536 2.97407,-2.01959 1.38781,-2.68454 0.24804,-2.15783 -0.24804,2.15783 -1.38781,2.68454 -2.97407,2.01959 -6.67317,0.78012 1.90582,-3.62588 2.11645,-1.10178 -2.11645,1.10178 -0.16675,-2.5578 -1.29502,-1.83219 1.29502,1.83219 0.16675,2.5578 -1.90582,3.62588 -6.3093,4.20326 -9.21813,-0.29222 4.65376,-8.95402 8.08708,-3.60829 6.36632,0.99641 2.60818,2.03156 0.92623,2.07067 -0.92623,-2.07067 -2.60818,-2.03156 4.50382,-1.10603 2.48789,1.17379 1.44049,1.62256 -1.44049,-1.62256 -2.48789,-1.17379 3.23493,-2.35664 2.34269,0.0804 -2.34269,-0.0804 1.21624,-2.0327 -1.21624,2.0327 -3.23493,2.35664 -4.50382,1.10603 -6.36632,-0.99641 3.88043,-6.87462 4.06696,-2.38673 3.43694,-0.58583 2.24192,0.61506 -2.24192,-0.61506 2.36221,-2.03327 2.33929,-0.84432 -2.33929,0.84432 0.56274,-2.3727 -0.56274,2.3727 -2.36221,2.03327 -3.43694,0.58583 1.51573,-3.92156 2.39186,-1.87266 2.07534,-0.59867 -2.07534,0.59867 -2.39186,1.87266 -0.79642,-2.40475 0.79642,2.40475 -1.51573,3.92156 -4.06696,2.38673 -0.97275,-6.05413 0.72871,-3.12605 1.21141,-1.74334 -1.21141,1.74334 -0.57143,-2.21424 0.57143,2.21424 -0.72871,3.12605 -3.02136,-2.6717 -0.9383,-2.30709 0.9383,2.30709 3.02136,2.6717 0.97275,6.05413 -3.88043,6.87462 -8.08708,3.60829 0.44985,-8.95135 4.41942,-6.239 4.59258,-1.99623 3.79297,0.26561 2.14229,1.09618 -2.14229,-1.09618 2.5346,-1.61932 2.57499,0.17046 -2.57499,-0.17046 -2.5346,1.61932 -3.79297,-0.26561 2.11327,-3.5736 2.54819,-1.91536 1.14199,-2.58391 2.20121,-1.20977 -2.20121,1.20977 -0.33799,-2.39443 0.4622,-2.10583 -0.4622,2.10583 0.33799,2.39443 -1.14199,2.58391 -2.54819,1.91536 -0.37215,-2.79853 0.37215,2.79853 -2.11327,3.5736 -4.59258,1.99623 -0.14931,-3.82698 1.16938,-2.61521 -1.16938,2.61521 -1.68694,-2.26055 0.005,-2.2426 -0.005,2.2426 1.68694,2.26055 0.14931,3.82698 -4.41942,6.239 -2.19313,-5.25611 0.94434,-4.39993 1.68994,-1.9576 -1.68994,1.9576 -1.42318,-3.62442 -2.27888,-2.1192 -0.32607,-2.32801 0.32607,2.32801 -2.719882,-0.21403 -1.938,-1.08115 1.938,1.08115 2.719882,0.21403 2.27888,2.1192 1.42318,3.62442 -0.94434,4.39993 -3.76309,-3.18561 -1.02561,-2.45619 1.02561,2.45619 -2.693392,-0.25755 2.693392,0.25755 3.76309,3.18561 2.19313,5.25611 -0.44985,8.95135 -4.65376,8.95402 -11.240262,6.44203 -0.36082,-15.6001 5.74324,-9.00824 5.854312,-2.57523 4.24256,0.78989 1.80224,1.99262 0.48698,2.23739 -0.48698,-2.23739 2.06231,0.71427 -2.06231,-0.71427 -1.80224,-1.99262 3.33109,-1.44271 2.31992,0.6332 -2.31992,-0.6332 1.80644,-1.81206 2.04348,-0.58771 -2.04348,0.58771 -1.80644,1.81206 -3.33109,1.44271 -4.24256,-0.78989 2.88686,-4.23273 4.2251,-1.67323 2.23122,0.54061 -2.23122,-0.54061 1.8087,-2.43927 0.32854,-2.19044 -0.32854,2.19044 -1.8087,2.43927 -4.2251,1.67323 0.69003,-3.82983 1.867,-2.14277 0.4136,-2.30414 -0.4136,2.30414 -1.867,2.14277 -0.60221,-2.88019 0.57202,-2.17343 -0.57202,2.17343 0.60221,2.88019 -0.69003,3.82983 -2.88686,4.23273 -5.854312,2.57523 1.5678,-7.14691 3.208182,-4.2008 3.13307,-1.84409 2.14014,-0.0851 -2.14014,0.0851 1.29532,-2.74997 0.0797,-2.49164 -0.0797,2.49164 -1.29532,2.74997 -3.13307,1.84409 0.14143,-3.61526 1.50571,-1.68194 -1.50571,1.68194 -1.407172,-2.67421 0.265542,-2.42542 -0.265542,2.42542 1.407172,2.67421 -0.14143,3.61526 -3.208182,4.2008 -2.79588,-5.76886 0.92589,-4.51403 2.41113,-2.12552 2.476032,-0.63658 -2.476032,0.63658 0.74204,-2.6327 -0.74204,2.6327 -2.41113,2.12552 -0.92051,-2.15463 0.92051,2.15463 -0.92589,4.51403 -2.95026,-2.17395 -1.44305,-2.91317 0.2998,-2.72732 -1.05489,-2.13739 1.05489,2.13739 -0.2998,2.72732 -2.43201,-1.61753 -0.95329,-2.10461 0.95329,2.10461 -2.56029,-0.22645 2.56029,0.22645 2.43201,1.61753 1.44305,2.91317 -2.1825,0.1256 2.1825,-0.1256 2.95026,2.17395 2.79588,5.76886 -1.5678,7.14691 -5.74324,9.00824 -4.46228,-9.38547 1.26771,-8.28314 3.61311,-5.34174 3.93158,-2.68302 3.9676,-0.62986 3.415632,1.10733 2.27071,2.01018 0.55465,2.15681 -0.55465,-2.15681 2.37203,0.41211 1.81537,1.09462 -1.81537,-1.09462 -2.37203,-0.41211 -2.27071,-2.01018 3.08056,-0.90339 2.28926,0.90683 -2.28926,-0.90683 1.84881,-2.05977 2.45906,-0.34973 -2.45906,0.34973 -1.84881,2.05977 -3.08056,0.90339 -3.415632,-1.10733 2.481272,-2.49702 2.33726,-0.44298 -2.33726,0.44298 0.901,-2.01069 -0.901,2.01069 -2.481272,2.49702 -3.9676,0.62986 1.16102,-3.58911 1.50102,-1.57347 -1.50102,1.57347 -0.32321,-2.62763 -1.33453,-1.66084 1.33453,1.66084 0.32321,2.62763 -1.16102,3.58911 -3.93158,2.68302 0.64367,-4.68171 1.98082,-2.66877 2.04,-0.90177 -2.04,0.90177 0.56614,-2.29386 -0.56614,2.29386 -1.98082,2.66877 -1.70191,-3.10052 -0.0364,-2.22007 0.0364,2.22007 -2.28665,-1.386 -1.11027,-2.03335 1.11027,2.03335 2.28665,1.386 1.70191,3.10052 -0.64367,4.68171 -3.61311,5.34174 -2.90588,-5.89471 0.14351,-5.49045 2.22885,-3.84771 3.04342,-1.898 1.29463,-2.3238 2.16095,-0.83418 -2.16095,0.83418 0.28084,-2.36534 -0.28084,2.36534 -1.29463,2.3238 -3.04342,1.898 -0.0228,-3.8705 1.49897,-2.21496 2.05381,-0.85547 -2.05381,0.85547 -1.49897,2.21496 0.0228,3.8705 -2.22885,3.84771 -1.99654,-3.34015 -0.0704,-2.45421 0.0704,2.45421 -3.0437,-1.25982 -1.84119,-2.2581 -2.04828,-0.6033 2.04828,0.6033 1.84119,2.2581 3.0437,1.25982 1.99654,3.34015 -0.14351,5.49045 -3.74414,-2.05577 -1.50422,-2.44346 -2.21562,-1.09586 2.21562,1.09586 1.50422,2.44346 -2.68492,-0.10072 -1.82477,-1.1834 1.82477,1.1834 2.68492,0.10072 3.74414,2.05577 2.90588,5.89471 -1.26771,8.28314 -4.57116,-3.72699 -1.93016,-4.9002 0.30466,-3.91706 1.25102,-2.50292 -0.0785,-2.26685 0.0785,2.26685 -1.25102,2.50292 -0.30466,3.91706 -2.20167,-2.44909 -2.16198,-1.01677 2.16198,1.01677 2.20167,2.44909 1.93016,4.9002 -3.47267,-0.70645 -2.08464,-1.96788 -0.60995,-2.37893 0.60995,2.37893 -2.20364,-0.85991 2.20364,0.85991 2.08464,1.96788 -2.23785,0.39567 2.23785,-0.39567 3.47267,0.70645 4.57116,3.72699 4.46228,9.38547 0.36082,15.6001 -13.84818,17.35384 -9.00873,-16.64377 0.42326,-13.39038 4.21308,-5.21705 5.66627,-1.80633 3.12612,0.56175 1.79965,1.18574 -1.79965,-1.18574 2.00177,-0.88462 -2.00177,0.88462 -3.12612,-0.56175 3.37107,-3.0161 3.83792,-1.18746 3.46133,0.30864 1.78975,1.36345 -1.78975,-1.36345 2.44207,-0.90256 2.21509,0.0493 -2.21509,-0.0493 -2.44207,0.90256 -3.46133,-0.30864 2.45462,-2.04936 2.36224,-0.21692 -2.36224,0.21692 -2.45462,2.04936 -3.83792,1.18746 0.79781,-3.43767 1.72696,-2.59584 0.12753,-2.73704 -0.12753,2.73704 -1.72696,2.59584 -1.2124,-2.57839 1.2124,2.57839 -0.79781,3.43767 -3.37107,3.0161 -5.66627,1.80633 1.71139,-5.53987 3.51943,-3.23187 3.74545,-1.15419 2.41504,0.59581 -2.41504,-0.59581 -3.74545,1.15419 0.67271,-4.17699 1.78859,-1.59332 -1.78859,1.59332 -0.66124,-3.14811 0.66124,3.14811 -0.67271,4.17699 -3.51943,3.23187 -0.64005,-3.60765 0.85484,-2.23833 -0.85484,2.23833 -2.28827,-2.12298 -1.1328,-2.21534 1.1328,2.21534 -2.05972,-0.78105 2.05972,0.78105 2.28827,2.12298 0.64005,3.60765 -1.71139,5.53987 -4.21308,5.21705 -2.98322,-6.65729 1.28779,-4.91787 2.03102,-2.33896 0.52262,-2.44181 -0.52262,2.44181 -2.03102,2.33896 -1.28636,-2.73146 1.28636,2.73146 -1.28779,4.91787 -3.41809,-1.71937 -1.79678,-2.24261 -0.0949,-2.41265 0.0949,2.41265 1.79678,2.24261 -3.07435,0.13357 -2.254882,1.34269 2.254882,-1.34269 3.07435,-0.13357 3.41809,1.71937 2.98322,6.65729 -0.42326,13.39038 -12.4392,-10.61404 -5.297858,-12.36259 0.837656,-7.5235 3.860448,-4.42839 4.896184,-1.2219 3.55787,1.36922 1.52761,2.61578 -0.36523,2.6879 1.16714,2.02845 -1.16714,-2.02845 0.36523,-2.6879 -1.52761,-2.61578 3.25537,-0.37715 2.12481,-1.61562 -2.12481,1.61562 -3.25537,0.37715 -3.55787,-1.36922 2.95347,-2.09795 2.55047,0.0396 -2.55047,-0.0396 -2.95347,2.09795 -4.896184,1.2219 0.976128,-3.42072 1.632322,-1.51859 -1.632322,1.51859 -0.406296,-2.39335 0.406296,2.39335 -0.976128,3.42072 -3.860448,4.42839 -2.581804,-4.00061 0.07557,-2.78892 -0.07557,2.78892 -3.520723,-2.27044 -0.797139,-2.40171 0.797139,2.40171 -2.357079,-0.0983 2.357079,0.0983 3.520723,2.27044 2.581804,4.00061 -0.837656,7.5235 -8.175167,-8.13835 -1.35021,-7.87807 1.952708,-5.83297 4.345187,-3.12632 3.100081,-0.82591 2.650941,0.66927 -2.650941,-0.66927 1.52001,-1.57877 -1.52001,1.57877 -3.100081,0.82591 2.486267,-3.81859 2.953265,-0.97928 -2.953265,0.97928 -0.09238,-3.36274 1.041815,-2.36701 -0.263414,-2.28088 0.263414,2.28088 -1.041815,2.36701 -1.836712,-2.20013 -0.483662,-2.52779 0.483662,2.52779 -2.244249,-0.59882 2.244249,0.59882 1.836712,2.20013 0.09238,3.36274 -2.486267,3.81859 -4.345187,3.12632 -0.139142,-3.10834 -1.705287,-2.00558 1.705287,2.00558 0.139142,3.10834 -1.952708,5.83297 -2.990138,-4.51697 -0.120522,-2.71215 -1.213634,-2.05414 1.213634,2.05414 0.120522,2.71215 -3.625131,-1.68476 -2.354146,-0.0767 2.354146,0.0767 3.625131,1.68476 2.990138,4.51697 1.35021,7.87807 -9.525597,-2.35465 -4.080683,-4.60605 -1.151614,-4.58647 1.486709,-3.62057 2.496498,-2.21577 0.663857,-2.32867 1.578232,-1.46221 -1.578232,1.46221 -0.663857,2.32867 -2.496498,2.21577 -0.572032,-2.30313 0.572032,2.30313 -1.486709,3.62057 -2.417557,-2.87322 -0.827336,-2.44873 0.598857,-2.08626 -0.598857,2.08626 0.827336,2.44873 -2.420636,-0.54306 2.420636,0.54306 2.417557,2.87322 1.151614,4.58647 -4.696104,-1.49337 -1.350718,-2.09498 1.350718,2.09498 -3.485997,0.19399 -2.606748,-0.99789 2.606748,0.99789 3.485997,-0.19399 4.696104,1.49337 4.080683,4.60605 -8.059554,3.20405 -6.064214,-0.41542 -4.189631,-2.74164 -1.30837,-3.37847 0.292902,-2.12087 -0.292902,2.12087 -2.269664,-1.47965 2.269664,1.47965 1.30837,3.37847 -3.318084,-0.32497 3.318084,0.32497 4.189631,2.74164 -4.579625,2.38257 -4.1933428,0.15939 -1.929986,-1.2096 1.929986,1.2096 -1.961429,1.66753 -2.179817,0.1981 2.179817,-0.1981 1.961429,-1.66753 4.1933428,-0.15939 -2.621506,3.83188 -3.3401358,1.9613 -3.274737,-0.4087 3.274737,0.4087 -0.872669,2.20075 0.872669,-2.20075 3.3401358,-1.9613 -0.652251,3.96017 -1.8653988,2.58934 -2.352826,0.71985 -1.455287,1.53965 1.455287,-1.53965 2.352826,-0.71985 1.8653988,-2.58934 1.063425,2.08811 -1.063425,-2.08811 0.652251,-3.96017 2.621506,-3.83188 4.579625,-2.38257 6.064214,0.41542 -2.240543,3.89022 -2.855034,1.91401 -0.826407,2.17956 0.826407,-2.17956 2.855034,-1.91401 -0.05653,2.98017 -1.335255,1.92984 1.335255,-1.92984 0.05653,-2.98017 2.240543,-3.89022 8.059554,-3.20405 9.525597,2.35465 8.175167,8.13835 5.297858,12.36259 -10.714452,-1.82382 -5.525959,-4.32567 -2.003748,-3.29491 0.161648,-2.92978 -1.457125,-2.11002 -0.134699,-2.14551 0.134699,2.14551 -2.048533,-0.58267 2.048533,0.58267 1.457125,2.11002 -0.161648,2.92978 2.003748,3.29491 -4.957331,-0.68625 -1.953048,-1.99163 1.953048,1.99163 -3.455018,1.08382 -2.550344,-0.18725 -1.972662,-1.00458 1.972662,1.00458 2.550344,0.18725 -1.668408,1.57613 1.668408,-1.57613 3.455018,-1.08382 4.957331,0.68625 5.525959,4.32567 -6.096229,2.57537 -4.417561,-0.92578 -3.194662,-2.01456 -0.969279,-2.09901 0.969279,2.09901 -2.409694,-0.2056 2.409694,0.2056 3.194662,2.01456 -2.876667,0.55841 -2.062757,1.47761 2.062757,-1.47761 2.876667,-0.55841 4.417561,0.92578 -2.639604,4.26016 -2.849765,1.76536 -2.137551,-0.14548 2.137551,0.14548 2.849765,-1.76536 0.24827,4.07657 -1.38865,2.02365 1.38865,-2.02365 1.797344,2.49946 0.436619,2.41782 -0.436619,-2.41782 -1.797344,-2.49946 -0.24827,-4.07657 2.639604,-4.26016 6.096229,-2.57537 10.714452,1.82382 12.4392,10.61404 9.00873,16.64377 v 26.45833" />
      <path
         inkscape:connector-curvature="0"
         d="m 77.241858,275.96647 v -26.45833 l 9.13914,-10.99029 10.41575,-5.45211 6.090062,-0.23006 4.3249,2.8297 0.96788,2.45416 -0.96788,-2.45416 3.8216,0.1453 2.61775,1.29196 1.34056,2.12046 1.76488,1.2543 -1.76488,-1.2543 -1.34056,-2.12046 2.5043,-0.37276 -2.5043,0.37276 -2.61775,-1.29196 2.73169,-1.75362 2.44583,0.0842 -2.44583,-0.0842 -2.73169,1.75362 -3.8216,-0.1453 -4.3249,-2.8297 2.86588,-1.44533 2.19721,0.28492 -2.19721,-0.28492 -2.86588,1.44533 -6.090062,0.23006 5.775822,-6.63129 6.98374,-3.34444 4.29891,0.0243 2.28022,0.96566 -2.28022,-0.96566 2.44195,-1.32125 -2.44195,1.32125 -4.29891,-0.0243 3.20141,-4.51401 4.28654,-1.79664 3.35176,0.95233 1.69374,2.25074 -1.69374,-2.25074 2.50873,-0.33216 -2.50873,0.33216 -3.35176,-0.95233 1.5989,-1.98607 0.16819,-2.22425 -0.16819,2.22425 -1.5989,1.98607 -4.28654,1.79664 0.41704,-4.22255 1.6542,-2.79399 1.90017,-0.94634 -1.90017,0.94634 -1.6542,2.79399 -1.36626,-2.89296 0.0887,-2.5886 -0.0887,2.5886 -1.85389,-1.47313 1.85389,1.47313 1.36626,2.89296 -0.41704,4.22255 -3.20141,4.51401 -6.98374,3.34444 2.04195,-5.3526 3.4966,-3.3846 3.2423,-0.96752 2.21462,0.1617 -2.21462,-0.1617 1.85397,-1.86493 2.19248,-0.62421 -2.19248,0.62421 -1.85397,1.86493 -3.2423,0.96752 0.96755,-3.62027 1.53408,-1.98609 -1.53408,1.98609 -0.35304,-3.02856 1.40681,-2.28509 -1.40681,2.28509 0.35304,3.02856 -0.96755,3.62027 -3.4966,3.3846 -0.97127,-2.94886 -2.01021,-1.51419 2.01021,1.51419 0.97127,2.94886 -2.04195,5.3526 -5.775822,6.63129 -10.41575,5.45211 1.33744,-7.36621 3.62076,-4.34687 4.30621,-1.66255 3.89395,-0.0288 2.999422,1.30581 2.31724,-0.39726 -2.31724,0.39726 -2.999422,-1.30581 1.923462,-1.52342 -1.923462,1.52342 -3.89395,0.0288 1.92132,-2.21618 2.22032,-1.00463 2.143852,0.32535 -2.143852,-0.32535 1.475052,-1.60408 -1.475052,1.60408 -2.22032,1.00463 0.75913,-2.02874 -0.75913,2.02874 -1.92132,2.21618 -4.30621,1.66255 0.62538,-4.89806 1.75925,-2.53373 -1.75925,2.53373 -1.55132,-2.44725 -1.86966,-1.0131 1.86966,1.0131 1.55132,2.44725 -0.62538,4.89806 -3.62076,4.34687 -0.87167,-4.6037 1.07854,-2.98809 1.69212,-1.91526 0.22957,-2.1679 -0.22957,2.1679 -1.69212,1.91526 -0.79932,-2.2948 0.79932,2.2948 -1.07854,2.98809 -1.96241,-2.30811 -0.65826,-2.06577 0.65826,2.06577 -2.15975,-0.7429 2.15975,0.7429 1.96241,2.30811 0.87167,4.6037 -1.33744,7.36621 -9.13914,10.99029 -9.21679,-20.16232 3.22778,-13.50419 8.61879,-7.85059 7.06143,-2.04792 6.29723,1.80925 3.97316,3.04385 1.51827,3.86567 -0.20998,3.24537 0.74206,2.30469 1.581862,1.44056 -1.581862,-1.44056 -0.74206,-2.30469 0.20998,-3.24537 1.840122,2.02271 0.31516,2.22119 -0.31516,-2.22119 1.89612,0.97258 -1.89612,-0.97258 -1.840122,-2.02271 -1.51827,-3.86567 4.381142,0.66494 3.36043,2.05874 1.75515,2.99191 -0.32452,2.11173 0.32452,-2.11173 -1.75515,-2.99191 -3.36043,-2.05874 2.4701,-0.97806 1.58525,-1.47658 -1.58525,1.47658 -2.4701,0.97806 -4.381142,-0.66494 -3.97316,-3.04385 4.29911,-0.80847 3.125572,1.16017 2.34492,-0.21501 -2.34492,0.21501 -3.125572,-1.16017 1.97228,-1.80333 2.289202,-0.17237 -2.289202,0.17237 0.633502,-2.31882 -0.633502,2.31882 -1.97228,1.80333 -4.29911,0.80847 -6.29723,-1.80925 3.14796,-3.97885 3.8763,-2.20387 2.74378,0.29604 -2.74378,-0.29604 1.13682,-2.92212 -0.1556,-2.78544 0.88647,-2.30257 -0.61133,-2.03295 0.61133,2.03295 -0.88647,2.30257 0.1556,2.78544 -1.13682,2.92212 -3.8763,2.20387 0.3192,-3.92063 -1.00863,-2.16219 1.00863,2.16219 -0.3192,3.92063 -3.14796,3.97885 -7.06143,2.04792 3.16719,-9.15903 4.90417,-5.01022 3.85477,-1.62265 2.67196,0.70318 1.95693,1.43597 -1.95693,-1.43597 2.11587,-0.24785 -2.11587,0.24785 -2.67196,-0.70318 2.03933,-2.53773 2.3444,-1.16399 1.35112,-1.78325 -1.35112,1.78325 -2.3444,1.16399 0.86847,-2.73902 1.77247,-1.78587 0.73051,-2.12689 -0.73051,2.12689 -1.77247,1.78587 -0.86847,2.73902 -2.03933,2.53773 -3.85477,1.62265 2.0275,-5.31809 4.06835,-2.31573 2.78936,0.21855 -2.78936,-0.21855 1.21018,-2.77441 1.65155,-1.41385 -1.65155,1.41385 -1.21018,2.77441 -4.06835,2.31573 -0.84556,-3.16839 0.84556,3.16839 -2.0275,5.31809 -4.90417,5.01022 -1.55273,-8.03868 1.48476,-4.9793 2.61868,-2.11697 0.6431,-2.53307 -0.6431,2.53307 -2.61868,2.11697 -1.32781,-3.75231 0.82881,-2.80398 1.62609,-1.42119 -1.62609,1.42119 -0.50683,-2.40853 0.71721,-2.05751 -0.71721,2.05751 0.50683,2.40853 -0.82881,2.80398 -2.47501,-2.49067 -0.34042,-2.5409 0.34042,2.5409 -2.88062,-0.72102 -2.1644,-1.52317 2.1644,1.52317 -2.2531,0.4937 2.2531,-0.4937 2.88062,0.72102 2.47501,2.49067 1.32781,3.75231 -1.48476,4.9793 -4.67298,-5.02397 -1.18954,-3.48456 1.02513,-2.83877 1.57209,-1.69472 -1.57209,1.69472 -0.7045,-2.25214 0.7045,2.25214 -1.02513,2.83877 -1.81635,-1.51414 1.81635,1.51414 1.18954,3.48456 -4.32114,-1.65077 -1.56427,-2.18926 -0.42335,-2.10429 0.42335,2.10429 -2.10789,-0.59453 2.10789,0.59453 1.56427,2.18926 -2.98553,0.91982 2.98553,-0.91982 4.32114,1.65077 4.67298,5.02397 1.55273,8.03868 -3.16719,9.15903 -8.61879,7.85059 -2.0846,-11.42314 3.22463,-6.58433 4.71147,-2.55437 4.00427,0.27475 1.80414,1.68283 -1.80414,-1.68283 2.67033,-1.94344 -2.67033,1.94344 -4.00427,-0.27475 1.34281,-2.95963 -0.43185,-2.09299 0.43185,2.09299 -1.34281,2.95963 -4.71147,2.55437 0.17115,-4.98247 1.45425,-2.15023 1.95991,-0.90408 -1.95991,0.90408 -1.45425,2.15023 -1.18988,-2.48333 -1.9556,-1.27941 1.9556,1.27941 1.18988,2.48333 -0.17115,4.98247 -3.22463,6.58433 -6.24334,-7.73232 -1.70634,-8.18321 2.55485,-4.9715 4.13082,-2.22589 3.70118,0.61881 2.1065,2.20299 -2.1065,-2.20299 2.86776,-1.53275 -2.86776,1.53275 -3.70118,-0.61881 2.09902,-2.96975 2.48701,-1.47797 2.49986,-0.24399 -2.49986,0.24399 -2.48701,1.47797 0.63284,-2.90783 -0.67711,-2.05054 0.67711,2.05054 -0.63284,2.90783 -2.09902,2.96975 -4.13082,2.22589 0.37896,-3.26727 -1.48568,-2.25499 -1.88512,-1.05575 1.88512,1.05575 1.48568,2.25499 -0.37896,3.26727 -2.55485,4.9715 -5.194682,-4.65948 -2.433913,-5.15482 0.522194,-3.08493 -1.212329,-2.08281 1.212329,2.08281 -0.522194,3.08493 -2.995291,-2.7804 -0.452736,-2.99912 0.452736,2.99912 -3.576384,-0.25889 -1.717449,-1.56907 1.717449,1.56907 -2.352894,1.314 -2.382072,-0.33194 2.382072,0.33194 2.352894,-1.314 3.576384,0.25889 2.995291,2.7804 2.433913,5.15482 -5.411312,-0.33772 -3.633843,-2.17581 -2.176153,-3.11096 0.181078,-3.40473 1.914917,-2.09358 0.488724,-2.241 -0.488724,2.241 -1.914917,2.09358 -1.198328,-1.75879 1.198328,1.75879 -0.181078,3.40473 -2.198333,-0.94238 2.198333,0.94238 2.176153,3.11096 -3.318897,0.26144 -2.513651,-1.35986 2.513651,1.35986 -2.051362,1.27125 2.051362,-1.27125 3.318897,-0.26144 3.633843,2.17581 -3.311959,1.31937 -2.307198,-0.3398 2.307198,0.3398 -1.587012,1.45046 1.587012,-1.45046 3.311959,-1.31937 5.411312,0.33772 5.194682,4.65948 1.70634,8.18321 -6.986174,-1.59843 -3.682817,-3.21755 -0.972604,-2.26295 0.972604,2.26295 -4.089875,-1.13883 -2.346479,-1.95333 -2.116312,-0.30477 2.116312,0.30477 2.346479,1.95333 -2.840213,0.31464 -1.964781,-0.84218 1.964781,0.84218 -1.695565,1.5156 1.695565,-1.5156 2.840213,-0.31464 4.089875,1.13883 3.682817,3.21755 -3.569425,0.62762 -1.76482,1.43893 1.76482,-1.43893 3.569425,-0.62762 6.986174,1.59843 6.24334,7.73232 2.0846,11.42314 -3.22778,13.50419 -10.970557,-10.24925 -3.116692,-7.26117 -0.116851,-5.39212 1.799916,-2.51342 2.394748,-1.17277 1.529946,-1.62952 -1.529946,1.62952 -2.394748,1.17277 0.01073,-2.62635 0.774882,-2.05223 -0.774882,2.05223 -1.456605,-1.85663 1.456605,1.85663 -0.01073,2.62635 -1.799916,2.51342 -1.132196,-2.88049 0.255348,-2.44983 -0.255348,2.44983 1.132196,2.88049 0.116851,5.39212 -3.527565,-3.51039 -0.487544,-2.4409 0.487544,2.4409 -3.824994,-1.34155 -1.373991,-2.24409 -0.324265,-2.23465 0.324265,2.23465 -1.948412,-1.29894 1.948412,1.29894 1.373991,2.24409 -3.51971,0.61292 -2.54982,-0.56883 2.54982,0.56883 -1.891976,1.80296 1.891976,-1.80296 3.51971,-0.61292 3.824994,1.34155 3.527565,3.51039 3.116692,7.26117 -8.67424,-3.12576 -3.751802,-3.25305 -1.330969,-4.12395 0.849131,-2.83794 -0.769454,-2.03975 0.769454,2.03975 -0.849131,2.83794 -1.897892,-2.17748 1.897892,2.17748 1.330969,4.12395 -4.192899,-1.43642 -1.627202,-2.00913 -0.214922,-2.30859 0.214922,2.30859 1.627202,2.00913 -2.709224,0.86123 2.709224,-0.86123 4.192899,1.43642 3.751802,3.25305 -5.110353,0.68865 -2.81128,-0.90452 2.81128,0.90452 -3.125992,3.10564 -3.172597,0.68917 -2.599508,-0.39781 2.599508,0.39781 -2.00398,1.52475 2.00398,-1.52475 3.172597,-0.68917 -0.929533,2.88682 0.252679,2.41876 -0.252679,-2.41876 0.929533,-2.88682 3.125992,-3.10564 5.110353,-0.68865 8.67424,3.12576 10.970557,10.24925 9.21679,20.16232 v 26.45833"
         style="fill:none;fill-opacity:1;stroke:#002a00;stroke-width:1.26499999;stroke-linecap:butt;stroke-linejoin:miter;stroke-miterlimit:4;stroke-dasharray:none;stroke-opacity:1"
         id="path900" />
      <path
         inkscape:connector-curvature="0"
         id="path916"
         style="fill:none;fill-opacity:1;stroke:#002a00;stroke-width:1.26499999;stroke-linecap:butt;stroke-linejoin:miter;stroke-miterlimit:4;stroke-dasharray:none;stroke-opacity:1"
         d="m 77.241858,275.96647 v -26.45833 l 8.52993,-18.52957 7.93724,-6.6948 6.598892,-1.96566 4.0154,0.99925 2.23561,2.94647 0.0568,2.55649 -0.0568,-2.55649 3.03682,1.20898 1.60769,2.26482 0.38134,2.12053 -0.38134,-2.12053 2.06208,0.90276 -2.06208,-0.90276 -1.60769,-2.26482 -3.03682,-1.20898 -2.23561,-2.94647 3.18233,-1.11845 2.41141,0.77983 -2.41141,-0.77983 1.61858,-1.40119 -1.61858,1.40119 -3.18233,1.11845 -4.0154,-0.99925 3.17867,-4.12481 3.35762,-1.34501 2.75844,0.79982 2.51195,-0.32627 -2.51195,0.32627 -2.75844,-0.79982 1.6608,-2.01241 -1.6608,2.01241 -3.35762,1.34501 0.66767,-4.41862 2.48888,-2.51178 2.55544,-0.86189 2.11748,0.21598 -2.11748,-0.21598 -2.55544,0.86189 -2.48888,2.51178 -1.35736,-2.84884 -1.83689,-1.68154 1.83689,1.68154 1.35736,2.84884 -0.66767,4.41862 -3.17867,4.12481 -6.598892,1.96566 1.77859,-8.78933 3.68233,-4.79115 3.464162,-1.31295 2.54695,0.67033 -2.54695,-0.67033 1.65737,-2.7355 1.82548,-1.07934 -1.82548,1.07934 -1.65737,2.7355 -3.464162,1.31295 0.7085,-4.69992 1.828252,-2.34895 1.95706,-0.8811 -1.95706,0.8811 0.09,-2.14984 -0.09,2.14984 -1.828252,2.34895 -0.60626,-2.60038 0.60626,2.60038 -0.7085,4.69992 -3.68233,4.79115 -1.32203,-5.63368 1.39631,-3.43262 2.15678,-1.91604 -2.15678,1.91604 -0.23366,-2.48488 0.23366,2.48488 -1.39631,3.43262 -2.03726,-2.26103 2.03726,2.26103 1.32203,5.63368 -1.77859,8.78933 -7.93724,6.6948 -4.21421,-17.75282 3.32394,-12.33288 5.53159,-5.34261 6.70095,-0.69067 3.390132,1.82133 1.77336,2.85498 -1.77336,-2.85498 2.22255,-0.43668 -2.22255,0.43668 -3.390132,-1.82133 2.82619,-2.08225 1.022182,-2.86768 -1.022182,2.86768 -2.82619,2.08225 -6.70095,0.69067 2.37375,-5.64615 3.44109,-2.83649 3.03618,-0.70395 2.373192,0.342 1.4937,1.53659 -1.4937,-1.53659 -2.373192,-0.342 1.947782,-1.37904 -1.947782,1.37904 -3.03618,0.70395 1.79335,-3.25217 1.993332,-1.46147 -1.993332,1.46147 0.0774,-2.24702 -0.0774,2.24702 -1.79335,3.25217 -3.44109,2.83649 -0.88808,-3.12816 -2.00121,-1.95184 -2.36368,-0.24485 2.36368,0.24485 2.00121,1.95184 0.88808,3.12816 -2.37375,5.64615 -5.53159,5.34261 -2.20364,-8.72681 1.91925,-4.24198 2.24603,-1.73847 2.16369,-0.45113 -2.16369,0.45113 0.89564,-2.03904 -0.89564,2.03904 -2.24603,1.73847 -0.94907,-3.62398 0.24608,-2.31646 -0.24608,2.31646 -2.46433,-2.19568 -0.74885,-2.46397 0.74885,2.46397 2.46433,2.19568 0.94907,3.62398 -1.91925,4.24198 -4.33547,-4.54216 -1.35189,-5.17133 0.7615,-2.89032 -0.7615,2.89032 -2.0261,-2.01098 -2.26531,-0.88866 2.26531,0.88866 2.0261,2.01098 1.35189,5.17133 -4.77828,-1.67758 -1.67158,-1.93801 -0.75271,-1.98593 0.75271,1.98593 1.67158,1.93801 -3.47314,1.12442 -2.11404,-0.41641 2.11404,0.41641 -1.26687,1.8878 1.26687,-1.8878 3.47314,-1.12442 4.77828,1.67758 4.33547,4.54216 2.20364,8.72681 -3.32394,12.33288 -7.38182,-7.82333 -1.29627,-8.26099 2.31592,-3.8714 3.44929,-1.664 -3.44929,1.664 -0.0834,-2.50246 0.0834,2.50246 -2.31592,3.8714 -2.63791,-3.31866 -0.67792,-2.78133 0.67792,2.78133 -2.36149,-1.10008 -1.22617,-1.80998 1.22617,1.80998 -2.2639,0.32332 2.2639,-0.32332 2.36149,1.10008 2.63791,3.31866 1.29627,8.26099 -6.04677,-1.06326 -2.81813,-2.98557 -0.51664,-2.45087 0.51664,2.45087 -2.8948,-0.89944 -2.13249,0.39067 2.13249,-0.39067 2.8948,0.89944 2.81813,2.98557 -3.44187,1.32237 -2.11341,-0.4709 2.11341,0.4709 -2.20659,2.28675 -2.61008,0.77789 -1.350304,1.81422 1.350304,-1.81422 2.61008,-0.77789 -0.88926,2.52979 0.20307,2.18955 -0.20307,-2.18955 0.88926,-2.52979 2.20659,-2.28675 3.44187,-1.32237 6.04677,1.06326 7.38182,7.82333 4.21421,17.75282 -8.52993,18.52957 -6.14563,-14.07498 1.10108,-9.85461 5.0958,-6.60622 6.61552,-2.20301 5.30871,1.11247 1.7268,2.13707 0.45938,2.29527 -0.45938,-2.29527 2.09028,0.81222 -2.09028,-0.81222 -1.7268,-2.13707 4.48903,-1.00679 2.63587,0.89672 -2.63587,-0.89672 1.88916,-2.20664 2.52415,-0.44039 -2.52415,0.44039 0.12031,-2.4333 -1.13142,-1.81075 1.13142,1.81075 -0.12031,2.4333 -1.88916,2.20664 -4.48903,1.00679 -5.30871,-1.11247 2.62784,-2.76634 2.84214,-0.68826 -2.84214,0.68826 0.5038,-2.85161 -0.5038,2.85161 -2.62784,2.76634 -6.61552,2.20301 0.61797,-4.85226 2.01363,-2.54472 2.53826,-0.57362 -2.53826,0.57362 0.0131,-2.80678 -1.53795,-1.98996 1.53795,1.98996 -0.0131,2.80678 -2.01363,2.54472 -1.97269,-3.73271 0.0188,-2.71859 -0.0188,2.71859 -2.07708,-1.53316 -0.68667,-2.069 0.68667,2.069 2.07708,1.53316 1.97269,3.73271 -0.61797,4.85226 -5.0958,6.60622 -2.50747,-4.35621 -0.64852,-3.87417 0.90204,-2.62334 -0.90204,2.62334 -2.15916,-2.50774 -0.67787,-2.61774 0.35239,-2.37068 1.3096,-1.70783 -1.3096,1.70783 -0.35239,2.37068 -1.71228,-1.29628 1.71228,1.29628 0.67787,2.61774 -2.39488,-0.76149 -1.48078,-1.64493 1.48078,1.64493 2.39488,0.76149 2.15916,2.50774 0.64852,3.87417 -3.30175,-1.43761 -2.63148,0.14312 2.63148,-0.14312 3.30175,1.43761 2.50747,4.35621 -1.10108,9.85461 -6.63492,-4.69956 -3.03526,-5.17743 0.46078,-4.13821 1.53469,-1.58856 -1.53469,1.58856 -0.70753,-2.34709 0.70753,2.34709 -0.46078,4.13821 -4.047023,-3.21978 -2.120187,-3.4625 -0.142988,-2.34568 0.142988,2.34568 -2.133376,-1.2421 2.133376,1.2421 2.120187,3.4625 -2.958547,-0.94597 -1.737175,-1.61974 1.737175,1.61974 -2.231073,0.50977 2.231073,-0.50977 2.958547,0.94597 4.047023,3.21978 3.03526,5.17743 -6.071383,-0.78151 -4.12718,-2.82918 -1.852319,-3.52268 0.04816,-2.43418 -0.04816,2.43418 -2.812594,-1.86576 -1.285137,-2.51855 1.285137,2.51855 -2.576103,0.17227 2.576103,-0.17227 2.812594,1.86576 1.852319,3.52268 -2.576582,0.20558 -1.878704,1.35883 1.878704,-1.35883 2.576582,-0.20558 4.12718,2.82918 -3.493669,1.4262 -3.17088,-0.30025 -1.597145,-1.51936 1.597145,1.51936 3.17088,0.30025 -1.636962,1.62452 1.636962,-1.62452 3.493669,-1.4262 6.071383,0.78151 6.63492,4.69956 6.14563,14.07498 v 26.45833" />
      <path
         inkscape:connector-curvature="0"
         d="m 77.241858,275.96647 v -26.45833 l 9.61085,-21.39599 9.27409,-7.62915 9.880272,-0.61205 4.83016,2.33834 2.02429,2.73466 0.23712,2.49645 -0.23712,-2.49645 2.44097,0.97835 1.56668,1.50824 -1.56668,-1.50824 -2.44097,-0.97835 -2.02429,-2.73466 3.30412,0.0293 2.07791,1.06594 -2.07791,-1.06594 2.65589,-1.19888 1.21372,-1.90047 -1.21372,1.90047 -2.65589,1.19888 -3.30412,-0.0293 -4.83016,-2.33834 6.27164,-2.80953 5.33064,-0.20876 2.5334,1.56833 1.04167,2.06919 -1.04167,-2.06919 -2.5334,-1.56833 4.23261,-2.04857 3.64546,0.53656 1.66347,1.45865 -1.66347,-1.45865 2.59802,-1.5579 2.13647,0.33071 -2.13647,-0.33071 1.15179,-2.4382 1.64461,-1.39277 -1.64461,1.39277 -1.15179,2.4382 -2.59802,1.5579 -3.64546,-0.53656 1.40112,-3.00019 2.1633,-1.65444 2.24154,-0.0221 -2.24154,0.0221 -2.1633,1.65444 -0.38117,-2.08546 0.38117,2.08546 -1.40112,3.00019 -4.23261,2.04857 -5.33064,0.20876 4.09543,-4.24468 3.56391,-1.65768 2.70357,0.31835 -2.70357,-0.31835 1.23196,-2.10636 -1.23196,2.10636 -3.56391,1.65768 0.44615,-4.2223 2.10851,-2.31083 0.76339,-2.47235 -0.76339,2.47235 -2.10851,2.31083 -1.56602,-2.69147 0.0194,-2.79302 1.35144,-1.74938 -1.35144,1.74938 -0.0194,2.79302 1.56602,2.69147 -0.44615,4.2223 -4.09543,4.24468 -6.27164,2.80953 -9.880272,0.61205 3.39139,-7.52778 3.327242,-3.26649 3.80875,-0.36994 2.17559,1.04927 -2.17559,-1.04927 2.50406,-1.82695 2.09566,-0.46915 -2.09566,0.46915 1.04248,-1.96906 -1.04248,1.96906 -2.50406,1.82695 -3.80875,0.36994 1.26604,-3.78975 1.85686,-2.28087 2.05123,-1.05866 -2.05123,1.05866 0.76311,-2.27307 -0.76311,2.27307 -1.85686,2.28087 -0.90354,-2.59864 0.90354,2.59864 -1.26604,3.78975 -3.327242,3.26649 -1.73383,-6.89043 1.50988,-3.38293 2.328192,-1.94652 2.13702,-0.39524 -2.13702,0.39524 0.84481,-2.40903 -0.84481,2.40903 -2.328192,1.94652 0.0584,-3.06755 1.219212,-2.26709 -1.219212,2.26709 -1.17979,-2.42472 1.17979,2.42472 -0.0584,3.06755 -1.50988,3.38293 -3.30074,-4.33155 -1.07127,-3.46846 -1.72029,-1.95689 1.72029,1.95689 1.07127,3.46846 -4.17286,-1.29809 -2.73757,-2.34998 -0.62166,-3.05331 -2.04041,-1.74767 -1.05495,-2.02362 1.05495,2.02362 2.04041,1.74767 0.62166,3.05331 -2.24619,-0.21953 2.24619,0.21953 2.73757,2.34998 -2.42013,0.24099 2.42013,-0.24099 4.17286,1.29809 3.30074,4.33155 1.73383,6.89043 -3.39139,7.52778 -9.27409,7.62915 -3.87326,-16.80243 2.81923,-8.40161 4.45258,-3.16807 3.46453,-0.21866 -3.46453,0.21866 2.45044,-4.20297 2.70079,-1.04694 2.15049,0.57584 -2.15049,-0.57584 -2.70079,1.04694 0.24228,-3.52119 1.38341,-2.72783 -1.38341,2.72783 -1.20639,-2.54644 1.20639,2.54644 -0.24228,3.52119 -2.45044,4.20297 -4.45258,3.16807 -0.58162,-6.2103 2.83521,-4.75308 2.65747,-1.89916 2.24195,0.0488 -2.24195,-0.0488 -2.65747,1.89916 -0.13903,-3.26462 1.14494,-2.52185 2.13377,-1.26545 -2.13377,1.26545 -1.14494,2.52185 0.13903,3.26462 -2.83521,4.75308 -2.06229,-2.7736 -0.24026,-2.22206 0.24026,2.22206 2.06229,2.7736 0.58162,6.2103 -2.81923,8.40161 -7.00171,-9.90951 -1.27327,-8.41446 2.08215,-4.47337 2.68452,-1.49828 2.49981,-0.16008 -2.49981,0.16008 1.49034,-1.79151 -1.49034,1.79151 -2.68452,1.49828 -0.67861,-2.79758 0.59543,-2.27678 -0.59543,2.27678 0.67861,2.79758 -2.08215,4.47337 -3.78524,-6.48085 0.0852,-5.0762 2.26779,-3.3516 2.94652,-0.94251 2.29469,0.8694 -2.29469,-0.8694 -2.94652,0.94251 0.38641,-2.32268 -0.38641,2.32268 -2.26779,3.3516 -2.30751,-2.98036 -0.19637,-2.3565 0.19637,2.3565 -2.32838,-1.24904 -2.24858,0.37368 2.24858,-0.37368 2.32838,1.24904 2.30751,2.98036 -0.0852,5.0762 -3.84,-1.9399 -1.88029,-3.17566 -0.0191,-2.65901 0.0191,2.65901 -2.38605,-1.04484 -2.34084,0.0292 2.34084,-0.0292 2.38605,1.04484 1.88029,3.17566 -2.52926,-0.0433 2.52926,0.0433 3.84,1.9399 3.78524,6.48085 1.27327,8.41446 -5.94301,-2.76685 -2.41387,-4.2684 -0.49665,-4.19914 1.91956,-3.25118 -0.19169,-2.84165 -1.57285,-1.73935 1.57285,1.73935 0.19169,2.84165 -1.91956,3.25118 -2.7081,-2.66739 -0.60678,-2.69017 0.60678,2.69017 -2.95785,-0.9979 -2.23476,0.55805 2.23476,-0.55805 2.95785,0.9979 2.7081,2.66739 0.49665,4.19914 -3.14907,-1.80011 3.14907,1.80011 2.41387,4.2684 -5.38403,0.20959 -4.15372,-1.58681 -1.90749,-1.98053 1.90749,1.98053 -3.027127,0.47737 -2.113762,-0.44456 2.113762,0.44456 -1.901607,1.24287 1.901607,-1.24287 3.027127,-0.47737 4.15372,1.58681 -4.28207,2.21254 -3.31577,-0.66286 -1.502636,-1.71933 1.502636,1.71933 3.31577,0.66286 -1.16489,2.44211 -1.768971,1.65946 1.768971,-1.65946 1.16489,-2.44211 4.28207,-2.21254 5.38403,-0.20959 5.94301,2.76685 7.00171,9.90951 3.87326,16.80243 -9.61085,21.39599 -9.75368,-14.46607 -1.29303,-13.77603 2.18689,-7.17687 2.59757,-3.37658 1.92873,-1.10041 -1.92873,1.10041 0.43958,-2.99037 -0.43958,2.99037 -2.59757,3.37658 -2.22285,-6.21514 1.30808,-5.63007 3.4403,-2.74181 3.13096,-0.73497 2.41342,0.93571 -2.41342,-0.93571 1.94797,-1.40105 -1.94797,1.40105 -3.13096,0.73497 1.20769,-3.12478 1.96622,-1.85074 -1.96622,1.85074 -0.24128,-2.72092 -1.31556,-1.86787 1.31556,1.86787 0.24128,2.72092 -1.20769,3.12478 -3.4403,2.74181 -0.92976,-4.38346 0.84641,-3.83364 1.74879,-1.44631 -1.74879,1.44631 -0.75181,-2.31172 0.75181,2.31172 -0.84641,3.83364 -2.08601,-3.31104 -0.38424,-2.72145 0.38424,2.72145 2.08601,3.31104 0.92976,4.38346 -1.30808,5.63007 -3.03825,-2.84512 -0.69728,-2.05571 0.69728,2.05571 -3.30677,-0.67671 -2.030421,0.7605 2.030421,-0.7605 3.30677,0.67671 3.03825,2.84512 2.22285,6.21514 -2.18689,7.17687 -5.92272,-8.45918 -0.81128,-5.40074 1.40162,-3.08636 -0.29856,-2.27599 0.29856,2.27599 -1.40162,3.08636 -2.82267,-3.69635 0.163341,-3.60587 1.31391,-2.15536 1.761599,-1.27078 -1.761599,1.27078 -1.31391,2.15536 -0.163341,3.60587 -3.313886,-1.11645 -2.110883,-1.98884 -1.090346,-2.17395 1.090346,2.17395 -2.554795,-0.37147 -1.547457,-1.6312 1.547457,1.6312 2.554795,0.37147 2.110883,1.98884 3.313886,1.11645 2.82267,3.69635 0.81128,5.40074 -5.446976,-2.4847 -2.407447,-4.3802 0.206623,-3.01227 1.488917,-2.18432 2.061997,-0.92922 -2.061997,0.92922 -1.488917,2.18432 -0.206623,3.01227 -2.634534,-1.95944 -0.982094,-1.94272 0.982094,1.94272 -2.418441,-0.18402 2.418441,0.18402 2.634534,1.95944 2.407447,4.3802 -3.350672,0.45126 -2.574141,-1.32296 2.574141,1.32296 -2.107186,1.98588 -2.277388,0.69426 2.277388,-0.69426 2.107186,-1.98588 3.350672,-0.45126 5.446976,2.4847 5.92272,8.45918 1.29303,13.77603 -13.935506,-6.19544 -6.817966,-7.07332 -0.717298,-5.05013 0.973976,-3.40283 1.785891,-2.18856 -1.785891,2.18856 -1.046253,-2.75896 0.525078,-2.19823 -0.525078,2.19823 1.046253,2.75896 -0.973976,3.40283 -2.343908,-2.80747 -0.07559,-2.47286 0.07559,2.47286 -2.733082,-1.09839 -1.308856,-2.29317 1.308856,2.29317 -2.213211,0.12055 2.213211,-0.12055 2.733082,1.09839 2.343908,2.80747 0.717298,5.05013 -7.733488,-0.85479 -5.213293,-4.03532 -1.684075,-5.51406 0.277349,-4.60673 1.670523,-3.10831 2.315062,-1.57775 2.121,-0.17762 -2.121,0.17762 -2.315062,1.57775 2.04e-4,-2.81022 -2.04e-4,2.81022 -1.670523,3.10831 -1.339859,-1.93367 1.339859,1.93367 -0.277349,4.60673 -1.838462,-2.4214 -1.962657,-0.90164 1.962657,0.90164 1.838462,2.4214 1.684075,5.51406 -4.687623,-1.13895 -2.266932,-2.26387 -0.584427,-2.5529 0.584427,2.5529 2.266932,2.26387 -3.575699,1.14178 -2.737415,-0.74113 2.737415,0.74113 -2.179731,1.88285 -0.398947,2.25068 0.398947,-2.25068 2.179731,-1.88285 3.575699,-1.14178 4.687623,1.13895 5.213293,4.03532 -5.11611,2.41699 -4.414812,-0.0929 -2.997705,-2.05062 2.997705,2.05062 -1.89427,1.50849 1.89427,-1.50849 4.414812,0.0929 -3.19863,3.91719 -4.117388,1.57074 -2.652043,-0.0247 -1.99237,-1.15446 1.99237,1.15446 -1.892172,0.97769 1.892172,-0.97769 2.652043,0.0247 -2.382013,2.32323 -0.89908,2.23694 0.89908,-2.23694 2.382013,-2.32323 4.117388,-1.57074 -0.668253,4.41525 -2.671968,2.52852 -0.912706,2.71993 0.912706,-2.71993 2.671968,-2.52852 1.372036,2.77846 -1.372036,-2.77846 0.668253,-4.41525 3.19863,-3.91719 5.11611,-2.41699 7.733488,0.85479 6.817966,7.07332 -12.505437,2.92316 -10.34898,-2.73839 -6.322785,-5.07126 -2.820102,-6.31588 0.02351,-3.93293 1.871436,-2.63584 -1.871436,2.63584 -0.890886,-2.10446 0.890886,2.10446 -0.02351,3.93293 -3.001314,-2.56113 -0.956923,-2.05865 0.956923,2.05865 -2.729522,-0.85624 -1.386057,-1.89527 1.386057,1.89527 2.729522,0.85624 3.001314,2.56113 2.820102,6.31588 -5.369362,-1.73495 -3.444675,-3.46605 -0.996339,-3.028 -1.765807,-2.15774 -2.187044,-0.98972 2.187044,0.98972 1.765807,2.15774 0.996339,3.028 -3.105351,-0.31307 -2.4931178,1.0028 -1.282133,1.82441 1.282133,-1.82441 2.4931178,-1.0028 3.105351,0.31307 3.444675,3.46605 -3.923383,1.42731 -2.764556,-0.64145 2.764556,0.64145 -1.915546,2.73481 -1.78374,1.15233 1.78374,-1.15233 -0.04617,2.35841 0.04617,-2.35841 1.915546,-2.73481 3.923383,-1.42731 5.369362,1.73495 6.322785,5.07126 -7.846851,1.40304 -6.826998,-1.70356 -3.066328,-2.94595 -1.150718,-2.64242 0.0476,-2.56161 -0.0476,2.56161 1.150718,2.64242 -3.0567998,-1.2487 -1.701063,-2.26938 -0.02085,-2.25109 0.02085,2.25109 -2.079275,-0.88224 2.079275,0.88224 1.701063,2.26938 -2.708304,0.6912 -1.720973,1.70197 1.720973,-1.70197 2.708304,-0.6912 3.0567998,1.2487 3.066328,2.94595 -5.410002,1.24169 -3.9913598,-1.60319 -1.517106,-2.40938 1.517106,2.40938 -2.388444,0.65495 2.388444,-0.65495 3.9913598,1.60319 -1.8933278,2.23122 -2.072411,0.78088 2.072411,-0.78088 1.8933278,-2.23122 5.410002,-1.24169 6.826998,1.70356 -3.095549,2.66541 -2.551467,0.0646 2.551467,-0.0646 -0.399299,2.42286 0.399299,-2.42286 3.095549,-2.66541 7.846851,-1.40304 10.34898,2.73839 -6.896806,5.43733 -7.7856,1.0757 -4.372613,-1.35321 -2.137987,-3.30834 -0.25823,-3.11482 0.890829,-2.17878 -0.890829,2.17878 0.25823,3.11482 -1.977886,-1.36934 1.977886,1.36934 2.137987,3.30834 -3.597901,0.82982 -3.001122,-0.62485 -1.866922,-1.71883 1.866922,1.71883 -2.544097,0.47955 -2.073748,-0.98282 2.073748,0.98282 2.544097,-0.47955 3.001122,0.62485 -2.201477,2.10592 -2.531188,0.95565 2.531188,-0.95565 -0.591395,2.4739 -1.678438,1.37096 1.678438,-1.37096 0.591395,-2.4739 2.201477,-2.10592 3.597901,-0.82982 4.372613,1.35321 -4.603448,4.28307 -5.563674,0.55719 -2.630699,-1.31361 -2.516379,-0.0633 2.516379,0.0633 2.630699,1.31361 -3.161632,1.64288 -1.128953,2.11066 1.128953,-2.11066 3.161632,-1.64288 5.563674,-0.55719 -0.752067,3.50042 -1.589566,1.55365 1.589566,-1.55365 0.752067,-3.50042 4.603448,-4.28307 7.7856,-1.0757 -2.584236,4.64197 -2.690902,1.0451 2.690902,-1.0451 -0.516235,4.44521 -2.192264,2.10629 -2.507082,0.43145 -2.057843,-0.76021 2.057843,0.76021 2.507082,-0.43145 -0.661686,2.57584 0.603516,2.07906 -0.603516,-2.07906 0.661686,-2.57584 2.192264,-2.10629 1.161824,1.9371 -1.161824,-1.9371 0.516235,-4.44521 2.584236,-4.64197 6.896806,-5.43733 12.505437,-2.92316 13.935506,6.19544 9.75368,14.46607 v 26.45833"
         style="fill:none;fill-opacity:1;stroke:#002a00;stroke-width:1.26499999;stroke-linecap:butt;stroke-linejoin:miter;stroke-miterlimit:4;stroke-dasharray:none;stroke-opacity:1"
         id="path934" />
      <path
         inkscape:connector-curvature="0"
         id="path954"
         style="fill:none;fill-opacity:1;stroke:#002a00;stroke-width:1.26499999;stroke-linecap:butt;stroke-linejoin:miter;stroke-miterlimit:4;stroke-dasharray:none;stroke-opacity:1"
         d="m 77.241858,275.96647 v -26.45833 l 6.82848,-17.03606 13.69732,-8.37658 11.759542,-1.88108 5.55317,2.18087 2.9817,3.65323 0.62914,3.27081 -1.24374,2.59302 1.24374,-2.59302 1.56546,1.45874 -1.56546,-1.45874 -0.62914,-3.27081 2.8954,0.86414 1.59382,2.0611 2.13721,0.61422 -2.13721,-0.61422 -1.59382,-2.0611 -2.8954,-0.86414 -2.9817,-3.65323 4.07374,-0.44475 2.43675,1.05123 1.08494,2.01433 -1.08494,-2.01433 -2.43675,-1.05123 2.71572,-1.5236 2.32314,0.33257 -2.32314,-0.33257 -2.71572,1.5236 -4.07374,0.44475 -5.55317,-2.18087 6.3235,-4.07458 5.40034,-0.0276 3.27054,2.63191 0.48565,2.39136 -0.48565,-2.39136 3.74976,0.1701 2.0969,1.47184 2.16507,0.34551 -2.16507,-0.34551 -2.0969,-1.47184 2.19171,-0.85606 -2.19171,0.85606 -3.74976,-0.1701 -3.27054,-2.63191 4.27346,-2.21635 2.6276,-0.3021 -2.6276,0.3021 1.35635,-2.04554 1.74943,-1.22954 -1.74943,1.22954 0.4932,-2.14424 -0.4932,2.14424 -1.35635,2.04554 -4.27346,2.21635 -5.40034,0.0276 1.79103,-3.378 1.81067,-1.37171 -1.81067,1.37171 -0.15793,-2.56912 1.04459,-1.97976 -1.04459,1.97976 0.15793,2.56912 -1.79103,3.378 -6.3235,4.07458 -11.759542,1.88108 8.006142,-10.39495 7.73351,-3.42381 6.06669,1.33331 2.96433,3.36617 1.08158,3.84129 -1.08508,2.73079 1.08508,-2.73079 -1.08158,-3.84129 3.73486,0.91397 1.91395,2.48575 0.75744,2.67414 -0.75744,-2.67414 2.25001,1.23703 -2.25001,-1.23703 -1.91395,-2.48575 2.89085,-0.91808 2.35523,0.16373 -2.35523,-0.16373 -2.89085,0.91808 -3.73486,-0.91397 -2.96433,-3.36617 4.33017,-0.66957 2.29706,1.10253 -2.29706,-1.10253 1.68288,-1.52965 -1.68288,1.52965 -4.33017,0.66957 -6.06669,-1.33331 3.29542,-3.89061 3.75833,-0.90543 3.01161,0.46574 1.73665,1.39551 -1.73665,-1.39551 1.9543,-1.06069 -1.9543,1.06069 -3.01161,-0.46574 1.84471,-2.46961 0.11781,-2.37571 -0.11781,2.37571 -1.84471,2.46961 -3.75833,0.90543 0.87815,-4.06473 1.83438,-1.68501 2.02172,-0.78607 -2.02172,0.78607 -1.83438,1.68501 -1.12847,-2.45745 0.4104,-2.08206 -0.4104,2.08206 1.12847,2.45745 -0.87815,4.06473 -3.29542,3.89061 -7.73351,3.42381 0.88271,-7.65675 2.95269,-4.14259 2.33114,-1.17246 -2.33114,1.17246 0.29844,-2.64365 -0.99531,-1.95899 0.99531,1.95899 -0.29844,2.64365 -2.95269,4.14259 -1.73916,-5.48861 0.83441,-3.55843 1.98965,-1.56154 -1.98965,1.56154 -0.93689,-2.137 0.93689,2.137 -0.83441,3.55843 -3.11049,-3.88321 -0.85816,-3.60066 0.45792,-2.49326 -0.45792,2.49326 -1.359052,-1.93119 1.359052,1.93119 0.85816,3.60066 -2.380542,-1.24393 -0.92026,-1.96606 0.92026,1.96606 -2.1841,-0.1303 2.1841,0.1303 2.380542,1.24393 3.11049,3.88321 1.73916,5.48861 -0.88271,7.65675 -8.006142,10.39495 -13.69732,8.37658 -2.55769,-14.43339 4.14851,-7.59001 6.37306,-3.40987 5.61436,0.69204 4.174692,2.30358 1.72896,2.97646 2.1508,1.40632 -2.1508,-1.40632 -1.72896,-2.97646 3.81961,-0.11902 2.38183,1.45604 1.35516,1.96451 -1.35516,-1.96451 -2.38183,-1.45604 2.64376,-1.44534 2.46686,0.0286 -2.46686,-0.0286 -2.64376,1.44534 -3.81961,0.11902 -4.174692,-2.30358 3.034832,-0.769 2.22784,0.62378 -2.22784,-0.62378 2.00499,-1.88745 -2.00499,1.88745 -3.034832,0.769 -5.61436,-0.69204 2.06997,-4.03013 2.09514,-0.9026 -2.09514,0.9026 -0.5767,-3.91052 1.41816,-3.14089 1.69685,-1.33897 -1.69685,1.33897 -0.67932,-2.73291 0.67932,2.73291 -1.41816,3.14089 -1.62231,-2.41858 -0.21332,-2.314 0.21332,2.314 1.62231,2.41858 0.5767,3.91052 -2.06997,4.03013 -6.37306,3.40987 0.57717,-7.20701 4.06047,-4.70799 4.77944,-1.45298 2.60047,0.52336 2.18942,-0.42924 -2.18942,0.42924 -2.60047,-0.52336 1.50505,-2.14001 1.91779,-1.28516 -1.91779,1.28516 0.55612,-2.26691 -0.55612,2.26691 -1.50505,2.14001 -4.77944,1.45298 0.0614,-3.96003 1.30353,-2.19103 -1.30353,2.19103 -1.2749,-2.59075 1.2749,2.59075 -0.0614,3.96003 -4.06047,4.70799 -2.27757,-4.05183 0.25411,-2.56107 -0.71318,-2.02999 0.71318,2.02999 -0.25411,2.56107 -3.17048,-1.80934 -1.10346,-2.38429 1.10346,2.38429 -2.31084,0.21222 2.31084,-0.21222 3.17048,1.80934 2.27757,4.05183 -0.57717,7.20701 -4.14851,7.59001 -7.14633,-10.65142 -0.29938,-7.22876 3.07435,-5.70265 4.46717,-2.71218 4.07894,0.14351 2.56704,2.08212 2.42969,0.78015 -2.42969,-0.78015 -2.56704,-2.08212 2.22089,-0.90389 1.33985,-1.69124 -1.33985,1.69124 -2.22089,0.90389 -4.07894,-0.14351 1.82071,-2.4257 2.00281,-1.10439 -2.00281,1.10439 0.51199,-2.30766 -0.51199,2.30766 -1.82071,2.4257 -4.46717,2.71218 0.69454,-4.98396 1.86677,-3.4603 2.85084,-1.85327 -2.85084,1.85327 0.31084,-2.17729 -0.31084,2.17729 -1.86677,3.4603 -1.45842,-3.15334 -2.11052,-1.73132 2.11052,1.73132 1.45842,3.15334 -0.69454,4.98396 -3.07435,5.70265 -1.91458,-4.33599 0.74593,-3.504 1.39611,-1.8014 -1.39611,1.8014 -0.50602,-2.34467 0.50602,2.34467 -0.74593,3.504 -2.89952,-2.75801 -0.96573,-1.98243 0.96573,1.98243 -3.55152,-0.24867 -2.36576,-2.0556 -1.23477,-2.45613 0.508,-2.34139 -0.508,2.34139 -2.00211,-1.31442 2.00211,1.31442 1.23477,2.45613 2.36576,2.0556 -2.66026,1.46226 -2.47371,0.25574 2.47371,-0.25574 -1.39267,1.59787 1.39267,-1.59787 2.66026,-1.46226 3.55152,0.24867 2.89952,2.75801 1.91458,4.33599 0.29938,7.22876 -6.65772,-3.74602 -2.43104,-6.08954 0.73426,-3.53188 1.96529,-1.62728 -1.96529,1.62728 -0.73426,3.53188 -3.07955,-1.77628 -1.23326,-2.1473 1.23326,2.1473 3.07955,1.77628 2.43104,6.08954 -4.11643,0.70945 -2.9834,-1.09559 -2.467408,0.88649 -2.174728,-0.63988 2.174728,0.63988 2.467408,-0.88649 2.9834,1.09559 -2.05287,1.3194 2.05287,-1.3194 4.11643,-0.70945 6.65772,3.74602 7.14633,10.65142 2.55769,14.43339 -6.82848,17.03606 -12.99822,-15.66012 -2.45349,-11.19401 1.88557,-8.34456 5.25253,-4.91487 5.52394,-0.31585 3.92221,1.86616 1.25923,2.66063 0.0598,2.46066 -0.0598,-2.46066 -1.25923,-2.66063 3.23508,-0.38557 2.0595,0.76956 -2.0595,-0.76956 2.2544,-1.2941 -2.2544,1.2941 -3.23508,0.38557 -3.92221,-1.86616 3.08151,-1.5188 2.514,0.12964 -2.514,-0.12964 1.57615,-2.02739 0.37869,-2.22588 -0.37869,2.22588 -1.57615,2.02739 -3.08151,1.5188 -5.52394,0.31585 1.27083,-5.28343 2.44881,-2.93716 2.5009,-0.80028 2.17613,0.70424 -2.17613,-0.70424 -2.5009,0.80028 0.58151,-2.39883 -0.58151,2.39883 -2.44881,2.93716 -0.54009,-3.70077 0.6084,-2.71278 1.46846,-1.6822 -1.46846,1.6822 -0.6084,2.71278 -1.4544,-2.33958 -1.89548,-1.13618 1.89548,1.13618 1.4544,2.33958 0.54009,3.70077 -1.27083,5.28343 -5.25253,4.91487 -2.72048,-6.19554 1.14855,-5.20195 3.04818,-3.44992 3.84843,-0.81227 2.05341,0.60529 -2.05341,-0.60529 1.38555,-1.65632 -1.38555,1.65632 -3.84843,0.81227 0.80799,-2.66189 1.7392,-1.78522 -1.7392,1.78522 -0.69762,-2.39505 0.81361,-1.97337 -0.81361,1.97337 0.69762,2.39505 -0.80799,2.66189 -3.04818,3.44992 -1.35942,-3.45546 -2.209683,-1.75685 -0.59272,-2.10006 0.59272,2.10006 2.209683,1.75685 1.35942,3.45546 -1.14855,5.20195 -4.628421,-3.9081 -1.524856,-4.8843 1.559795,-3.83807 1.777867,-1.9357 -1.777867,1.9357 -0.708751,-2.24809 0.708751,2.24809 -1.559795,3.83807 -2.693406,-3.16327 -0.777968,-2.15382 0.777968,2.15382 -2.00695,-1.12937 2.00695,1.12937 2.693406,3.16327 1.524856,4.8843 -4.59455,-1.02653 -2.847396,-1.93852 -1.059988,-2.24064 -1.710366,-1.30967 1.710366,1.30967 1.059988,2.24064 2.847396,1.93852 -3.440575,1.52559 -2.153237,-0.33117 2.153237,0.33117 3.440575,-1.52559 4.59455,1.02653 4.628421,3.9081 2.72048,6.19554 -1.88557,8.34456 -6.675444,-5.7085 -2.632089,-5.68229 0.571043,-3.80835 -1.708207,-2.85092 -0.137347,-2.28015 0.137347,2.28015 -2.472532,-1.17108 -2.300262,0.24935 2.300262,-0.24935 2.472532,1.17108 1.708207,2.85092 -0.571043,3.80835 -2.968143,-2.12479 -1.379271,-2.17029 1.379271,2.17029 2.968143,2.12479 2.632089,5.68229 -6.054671,-0.83654 -3.706861,-2.92342 -0.644001,-2.97072 0.644001,2.97072 -3.978592,-0.64591 -1.895877,-1.74715 -2.190851,-0.19348 2.190851,0.19348 1.895877,1.74715 -3.053334,1.78614 -3.151464,0.23001 -2.009314,1.19341 2.009314,-1.19341 3.151464,-0.23001 -1.417922,2.76766 0.171242,2.43298 -0.171242,-2.43298 1.417922,-2.76766 3.053334,-1.78614 3.978592,0.64591 3.706861,2.92342 -3.304215,1.24275 -1.709874,1.59482 1.709874,-1.59482 3.304215,-1.24275 6.054671,0.83654 6.675444,5.7085 2.45349,11.19401 -15.049038,-6.82281 -8.200937,-8.9235 -2.116956,-7.58515 2.065884,-5.70823 3.375671,-2.2735 3.41646,-0.16477 1.928365,-1.49245 0.727337,-2.02029 -0.727337,2.02029 -1.928365,1.49245 -3.41646,0.16477 1.250267,-2.63747 1.585402,-1.55375 -1.585402,1.55375 -1.250267,2.63747 -3.375671,2.2735 -0.509434,-3.58785 -1.610165,-2.75003 1.610165,2.75003 0.509434,3.58785 -2.065884,5.70823 -5.637254,-3.88617 -1.224028,-3.32606 0.02755,-2.22269 -0.02755,2.22269 -2.307592,-1.55033 2.307592,1.55033 1.224028,3.32606 -5.529422,-0.0178 -2.666843,-1.60762 -1.41976,-1.99373 1.41976,1.99373 2.666843,1.60762 -3.226036,1.42144 -2.574174,0.1663 2.574174,-0.1663 -1.932698,2.47037 1.932698,-2.47037 3.226036,-1.42144 5.529422,0.0178 5.637254,3.88617 2.116956,7.58515 -6.639777,-2.58079 -2.770378,-2.93458 -1.106698,-2.67273 1.106698,2.67273 -2.302029,-0.78776 2.302029,0.78776 2.770378,2.93458 -5.532282,0.20125 -2.91414,-1.13122 -1.898319,-1.77053 -1.958059,-0.82311 1.958059,0.82311 1.898319,1.77053 2.91414,1.13122 -3.604792,3.17462 -2.777771,1.0399 2.777771,-1.0399 -1.77731,3.73905 -2.071412,1.82574 -2.381931,0.12845 2.381931,-0.12845 2.071412,-1.82574 0.268397,3.01215 -0.775957,2.4407 0.775957,-2.4407 -0.268397,-3.01215 1.77731,-3.73905 3.604792,-3.17462 5.532282,-0.20125 6.639777,2.58079 8.200937,8.9235 -11.520115,2.25406 -7.225925,-2.35249 -3.522004,-4.10792 -1.189846,-3.96701 0.531825,-3.49438 1.573853,-1.86906 1.994138,-0.80452 -1.994138,0.80452 -1.573853,1.86906 -0.531825,3.49438 -2.808031,-2.39709 -0.9391,-2.26434 0.9391,2.26434 -2.791258,-0.40803 -1.838773,-1.17757 1.838773,1.17757 -2.224566,1.1016 2.224566,-1.1016 2.791258,0.40803 2.808031,2.39709 1.189846,3.96701 -3.115794,-1.73692 -1.859887,-2.5214 0.0056,-2.59396 1.249076,-1.8196 -1.249076,1.8196 -0.0056,2.59396 1.859887,2.5214 -2.348614,-0.0296 2.348614,0.0296 3.115794,1.73692 3.522004,4.10792 -5.557945,1.64234 -3.149903,-1.04692 -1.395273,-1.72736 1.395273,1.72736 -2.412258,0.74248 -1.510627,1.67717 1.510627,-1.67717 2.412258,-0.74248 3.149903,1.04692 -3.473864,3.28499 -3.314143,0.58881 -2.664867,-1.3223 -2.315618,0.50802 2.315618,-0.50802 2.664867,1.3223 -2.097292,1.82706 2.097292,-1.82706 3.314143,-0.58881 -1.089231,3.67953 -2.234584,2.00676 2.234584,-2.00676 1.067492,2.78421 -1.067492,-2.78421 1.089231,-3.67953 3.473864,-3.28499 5.557945,-1.64234 7.225925,2.35249 -5.39047,3.83452 -4.821749,0.7496 -2.937239,-1.75352 -2.52267,-0.32718 -1.891008,-1.12051 1.891008,1.12051 2.52267,0.32718 2.937239,1.75352 -2.907521,1.95045 -3.149621,-0.04 -2.161171,-1.22384 -1.346299,-1.67911 1.346299,1.67911 2.161171,1.22384 3.149621,0.04 -0.753909,2.41331 -1.756825,1.37354 1.756825,-1.37354 0.753909,-2.41331 2.907521,-1.95045 4.821749,-0.7496 -1.805604,4.4156 -2.918998,2.60314 -2.152025,0.82314 2.152025,-0.82314 -0.529761,2.38661 0.441948,2.12016 -0.441948,-2.12016 0.529761,-2.38661 2.918998,-2.60314 0.408014,3.87371 -1.078092,2.78585 1.078092,-2.78585 1.699871,2.19575 0.643753,2.02288 -0.643753,-2.02288 -1.699871,-2.19575 -0.408014,-3.87371 1.805604,-4.4156 5.39047,-3.83452 11.520115,-2.25406 15.049038,6.82281 12.99822,15.66012 v 26.45833" />
      <path
         inkscape:connector-curvature="0"
         d="m 77.241858,275.96647 v -26.45833 l 9.09676,-19.02706 12.62754,-11.21601 13.437132,-2.02145 8.86178,4.42249 3.4969,7.91667 -0.28278,4.86682 -1.68078,3.5507 -1.7385,1.22994 1.7385,-1.22994 -0.16306,2.95444 0.16306,-2.95444 1.68078,-3.5507 1.70605,2.81738 0.36785,2.157 -0.36785,-2.157 2.23878,0.89884 -2.23878,-0.89884 -1.70605,-2.81738 0.28278,-4.86682 3.55616,2.96369 0.76504,2.94589 -0.76504,-2.94589 2.8542,-0.008 -2.8542,0.008 -3.55616,-2.96369 -3.4969,-7.91667 5.99999,-0.62484 5.24621,1.35232 2.02175,2.62313 0.34684,2.72074 1.36835,1.81398 -1.36835,-1.81398 -0.34684,-2.72074 2.71099,0.8646 -2.71099,-0.8646 -2.02175,-2.62313 4.28787,-1.28701 3.22575,1.36641 1.80616,1.79274 -1.80616,-1.79274 2.88691,-0.53796 2.24015,0.94017 -2.24015,-0.94017 1.73702,-1.76463 2.03183,-0.89241 -2.03183,0.89241 -1.73702,1.76463 -2.88691,0.53796 -3.22575,-1.36641 2.15611,-2.47093 2.81867,-0.67219 2.18916,0.30292 -2.18916,-0.30292 -2.81867,0.67219 0.0956,-2.92539 -1.36141,-1.92041 1.36141,1.92041 -0.0956,2.92539 -2.15611,2.47093 -4.28787,1.28701 -5.24621,-1.35232 3.9213,-1.9799 2.31356,0.2808 -2.31356,-0.2808 1.90026,-2.29512 -1.90026,2.29512 -3.9213,1.9799 -5.99999,0.62484 -8.86178,-4.42249 8.84813,-7.77084 8.38855,-1.25811 6.18496,1.75032 2.42048,3.51245 -0.12267,3.16307 0.12267,-3.16307 2.75148,1.64652 1.46174,2.2928 -1.46174,-2.2928 2.4606,0.44479 -2.4606,-0.44479 -2.75148,-1.64652 -2.42048,-3.51245 4.10072,-1.82379 3.39243,0.71269 2.76082,-1.23574 2.36619,0.55294 -2.36619,-0.55294 1.20512,-1.94412 -1.20512,1.94412 -2.76082,1.23574 -3.39243,-0.71269 2.72131,-2.78785 3.00653,-0.36191 2.08423,0.78966 -2.08423,-0.78966 -3.00653,0.36191 -2.72131,2.78785 -4.10072,1.82379 -6.18496,-1.75032 5.32584,-4.49661 3.77403,-1.04015 2.75325,0.6087 1.65645,1.77578 -1.65645,-1.77578 -2.75325,-0.6087 2.30167,-1.78359 2.42881,0.0636 -2.42881,-0.0636 -2.30167,1.78359 -3.77403,1.04015 0.89755,-4.18172 2.23348,-2.30039 2.45589,-0.82057 -2.45589,0.82057 0.79545,-2.72222 -0.79545,2.72222 -2.23348,2.30039 -0.85687,-3.5714 0.90423,-2.70905 -0.90423,2.70905 0.85687,3.5714 -0.89755,4.18172 -5.32584,4.49661 -8.38855,1.25811 2.71049,-7.68603 4.33952,-5.08597 5.29898,-2.40777 2.84202,0.64441 1.71104,1.47696 -1.71104,-1.47696 2.00019,-1.01433 -2.00019,1.01433 -2.84202,-0.64441 1.73363,-2.6211 2.11752,-0.82859 -2.11752,0.82859 -1.73363,2.6211 -5.29898,2.40777 1.08207,-3.83205 1.41225,-1.7735 -1.41225,1.7735 -0.25378,-2.4072 0.25378,2.4072 -1.08207,3.83205 -4.33952,5.08597 -0.88446,-7.15213 1.07753,-3.59444 -0.20365,-2.14084 0.20365,2.14084 -1.07753,3.59444 -2.8044,-3.08264 -0.78077,-2.62941 -1.43377,-1.82039 1.43377,1.82039 0.78077,2.62941 -3.24573,-0.45673 -1.81259,-1.25235 1.81259,1.25235 -2.51213,1.44731 -1.11277,1.86579 1.11277,-1.86579 2.51213,-1.44731 3.24573,0.45673 2.8044,3.08264 0.88446,7.15213 -2.71049,7.68603 -8.84813,7.77084 -13.437132,2.02145 3.657272,-7.98548 5.00605,-3.83944 4.75892,-0.99553 3.36079,0.83868 1.54677,1.66567 -1.54677,-1.66567 2.33026,-0.79742 -2.33026,0.79742 -3.36079,-0.83868 3.06671,-2.35194 2.93467,-0.76877 -2.93467,0.76877 -3.06671,2.35194 -4.75892,0.99553 2.07132,-4.63049 4.04862,-2.08868 4.06242,-0.33506 2.89249,1.13402 -2.89249,-1.13402 2.18465,-2.01204 2.62889,-0.12668 -2.62889,0.12668 0.97123,-2.30723 -0.97123,2.30723 -2.18465,2.01204 -4.06242,0.33506 2.28239,-2.56653 2.64146,-1.19745 1.3354,-1.85369 -1.3354,1.85369 -2.64146,1.19745 0.40023,-3.03043 1.48978,-1.74984 -1.48978,1.74984 -1.14292,-2.41671 -0.0666,-2.18037 0.0666,2.18037 1.14292,2.41671 -0.40023,3.03043 -2.28239,2.56653 -4.04862,2.08868 -0.88273,-3.20694 0.76856,-2.41722 -0.76856,2.41722 -1.97048,-1.85166 -0.88488,-2.15682 0.88488,2.15682 -2.05813,-0.50834 2.05813,0.50834 1.97048,1.85166 0.88273,3.20694 -2.07132,4.63049 -5.00605,3.83944 -0.6578,-6.73672 1.66823,-3.14316 1.99086,-0.83779 -1.99086,0.83779 -1.66823,3.14316 -2.240092,-2.60654 2.240092,2.60654 0.6578,6.73672 -3.657272,7.98548 -12.62754,11.21601 -1.79791,-12.86725 3.93361,-7.07214 4.76457,-3.95949 3.64528,-0.9575 1.78342,-1.86041 -1.78342,1.86041 -3.64528,0.9575 1.37913,-2.99479 -0.0721,-2.6442 1.04088,-2.01902 -1.04088,2.01902 -1.46387,-1.83442 1.46387,1.83442 0.0721,2.6442 -1.37913,2.99479 -4.76457,3.95949 0.38679,-5.40082 1.59827,-3.32726 2.41749,-1.8372 2.29078,-0.1761 -2.29078,0.1761 0.97561,-1.91327 -0.97561,1.91327 -2.41749,1.8372 -0.59518,-2.5931 0.59518,2.5931 -1.59827,3.32726 -1.0413,-2.51185 1.0413,2.51185 -0.38679,5.40082 -3.93361,7.07214 -8.10178,-8.13065 -2.50277,-7.78329 0.98379,-4.66038 1.95657,-1.90225 2.31938,-0.65894 -2.31938,0.65894 0.7945,-2.15223 -0.7945,2.15223 -1.95657,1.90225 -0.38865,-2.42781 0.51668,-2.11493 -0.51668,2.11493 0.38865,2.42781 -0.98379,4.66038 -3.71102,-3.97551 -1.64337,-3.91893 0.65259,-2.44291 -0.65259,2.44291 -2.94698,-1.84167 -2.62149,0.17742 2.62149,-0.17742 2.94698,1.84167 1.64337,3.91893 -3.66382,-0.53706 -2.02342,-1.38547 2.02342,1.38547 -2.66084,1.56592 -2.65588,-0.42729 2.65588,0.42729 -1.19754,2.10756 1.19754,-2.10756 2.66084,-1.56592 3.66382,0.53706 3.71102,3.97551 2.50277,7.78329 -9.11477,-2.75814 -4.13668,-4.18838 -0.51418,-4.10226 1.37356,-2.21664 1.98793,-1.15492 -1.98793,1.15492 -1.37356,2.21664 -1.5796,-2.15942 -2.02815,-0.73711 2.02815,0.73711 1.5796,2.15942 0.51418,4.10226 -3.44128,-0.7153 -2.05797,0.94108 2.05797,-0.94108 3.44128,0.7153 4.13668,4.18838 -5.98345,0.50723 -2.791118,-1.91137 -2.811749,-0.50484 -2.049914,1.08073 2.049914,-1.08073 2.811749,0.50484 2.791118,1.91137 -3.638102,3.52199 -3.190984,0.44918 -1.979326,-1.08144 1.979326,1.08144 3.190984,-0.44918 -1.50155,3.27793 1.50155,-3.27793 3.638102,-3.52199 5.98345,-0.50723 9.11477,2.75814 8.10178,8.13065 1.79791,12.86725 -9.09676,19.02706 -13.63033,-16.29992 -0.53968,-17.07491 3.38104,-7.98337 5.28925,-3.22533 4.59113,-0.80868 2.87107,0.70867 1.744,1.34799 -1.744,-1.34799 2.19065,-0.95099 -2.19065,0.95099 -2.87107,-0.70867 2.22211,-1.92582 -2.22211,1.92582 -4.59113,0.80868 1.36446,-4.00147 2.57216,-2.40291 1.21571,-2.51352 -1.21571,2.51352 -2.57216,2.40291 -0.24491,-3.04856 0.24491,3.04856 -1.36446,4.00147 -5.28925,3.22533 -1.36278,-4.73162 0.34073,-4.16767 1.741,-2.14033 -1.741,2.14033 -1.29899,-2.73269 0.52243,-2.12324 -0.52243,2.12324 1.29899,2.73269 -0.34073,4.16767 -2.72303,-2.88792 -0.16439,-2.49992 0.16439,2.49992 2.72303,2.88792 1.36278,4.73162 -3.38104,7.98337 -8.792635,-10.88144 -0.006,-11.3081 3.873446,-8.16348 5.906309,-4.89665 3.91668,-0.42066 2.72857,1.23542 1.52762,1.65134 -1.52762,-1.65134 2.24881,-0.55591 -2.24881,0.55591 -2.72857,-1.23542 2.29216,-1.14591 0.92017,-1.96948 -0.92017,1.96948 -2.29216,1.14591 -3.91668,0.42066 2.32995,-5.00917 2.9395,-2.64918 2.59434,-0.77058 2.09199,0.46043 -2.09199,-0.46043 -2.59434,0.77058 0.53801,-2.34101 -0.53801,2.34101 -2.9395,2.64918 -0.70146,-4.23578 1.18848,-2.06831 -1.18848,2.06831 -2.12208,-2.55615 2.12208,2.55615 0.70146,4.23578 -2.32995,5.00917 -5.906309,4.89665 -0.802019,-7.46435 2.832798,-5.34575 2.70944,-2.14112 1.17221,-2.1068 -1.17221,2.1068 -2.70944,2.14112 0.15884,-3.63695 1.60317,-2.00745 2.03229,-1.08472 -2.03229,1.08472 -1.60317,2.00745 -1.05948,-2.47309 0.43622,-2.27479 -0.43622,2.27479 1.05948,2.47309 -0.15884,3.63695 -2.832798,5.34575 -2.395694,-3.99039 -0.10798,-2.66445 0.10798,2.66445 -2.155272,-1.12108 2.155272,1.12108 2.395694,3.99039 0.802019,7.46435 -3.873446,8.16348 -5.016367,-8.27279 0.321397,-4.99101 1.217836,-2.42482 1.690307,-1.38819 -1.690307,1.38819 -1.217836,2.42482 -1.062594,-2.5857 1.062594,2.5857 -0.321397,4.99101 -5.472554,-2.39255 -2.317315,-4.09307 0.05325,-2.35442 -0.05325,2.35442 -2.095877,-1.71624 2.095877,1.71624 2.317315,4.09307 -4.964177,0.19255 -3.330804,-2.54452 -1.033388,-2.02105 1.033388,2.02105 -2.472215,-0.68228 2.472215,0.68228 3.330804,2.54452 -2.132637,1.87543 2.132637,-1.87543 4.964177,-0.19255 5.472554,2.39255 5.016367,8.27279 0.006,11.3081 -11.759201,-2.60552 -5.565659,-5.0188 -2.137523,-4.38927 -0.04567,-3.16484 1.338685,-1.93343 -1.338685,1.93343 -1.002368,-2.1708 -1.519076,-1.50478 1.519076,1.50478 1.002368,2.1708 0.04567,3.16484 -2.455118,-1.31422 2.455118,1.31422 2.137523,4.38927 -5.284811,-1.01937 -2.802798,-1.96905 -1.089748,-2.80368 0.681681,-2.0446 -0.681681,2.0446 -2.009926,-1.74886 2.009926,1.74886 1.089748,2.80368 2.802798,1.96905 -2.915219,0.72388 -1.695268,2.02954 1.695268,-2.02954 2.915219,-0.72388 5.284811,1.01937 5.565659,5.0188 -7.998232,2.37452 -4.77889,-1.26084 -2.147217,-1.64644 2.147217,1.64644 -3.039125,0.53847 -2.424747,-0.73891 2.424747,0.73891 -1.95,1.69981 -2.277631,0.33423 2.277631,-0.33423 1.95,-1.69981 3.039125,-0.53847 4.77889,1.26084 -3.599505,5.01051 -5.252482,1.36897 -4.178709,-1.80764 -1.939672,-3.30069 0.32153,-2.87267 1.487207,-1.69758 -1.487207,1.69758 -0.32153,2.87267 -2.116073,-1.68201 2.116073,1.68201 1.939672,3.30069 -2.522424,0.63234 -2.289661,-0.46371 2.289661,0.46371 2.522424,-0.63234 4.178709,1.80764 -2.882,2.78777 -1.100803,2.72489 1.100803,-2.72489 2.882,-2.78777 5.252482,-1.36897 -0.474277,3.47901 1.447958,2.51846 -1.447958,-2.51846 0.474277,-3.47901 3.599505,-5.01051 7.998232,-2.37452 11.759201,2.60552 8.792635,10.88144 0.53968,17.07491 -14.258841,-6.44984 -7.609434,-8.97855 -2.488298,-7.88181 1.966551,-5.17067 2.738208,-2.97512 2.68859,-0.49533 -2.68859,0.49533 0.724605,-2.00967 -0.724605,2.00967 -2.738208,2.97512 -0.122912,-3.17979 0.122912,3.17979 -1.966551,5.17067 -4.48812,-4.71988 -0.885362,-4.2037 0.773167,-2.48931 -0.773167,2.48931 -1.501941,-2.27777 -0.44938,-2.21616 0.44938,2.21616 1.501941,2.27777 0.885362,4.2037 -3.430154,-0.6128 -2.216705,1.18742 -2.134899,-0.41988 2.134899,0.41988 2.216705,-1.18742 3.430154,0.6128 4.48812,4.71988 2.488298,7.88181 -7.847721,-1.3485 -4.631482,-2.86376 -2.320195,-3.02479 -0.575073,-2.29681 0.575073,2.29681 -3.199788,-0.72747 -2.426459,1.0397 -2.175761,0.0553 2.175761,-0.0553 2.426459,-1.0397 3.199788,0.72747 2.320195,3.02479 -3.821894,-0.16557 -2.745725,-1.5398 -1.729502,-2.05096 -0.240752,-2.26981 0.240752,2.26981 1.729502,2.05096 2.745725,1.5398 -2.544547,1.04344 2.544547,-1.04344 3.821894,0.16557 4.631482,2.86376 -6.359566,3.06705 -4.205612,0.15682 -3.219538,-1.0574 -1.402358,-1.80016 1.402358,1.80016 3.219538,1.0574 -1.899729,0.95236 1.899729,-0.95236 4.205612,-0.15682 -4.020708,4.46552 -2.961717,0.85494 -1.767275,1.60728 1.767275,-1.60728 2.961717,-0.85494 -1.224556,5.1334 -2.213584,3.03456 -2.160461,0.77499 2.160461,-0.77499 -0.368712,2.39593 0.368712,-2.39593 2.213584,-3.03456 1.347354,4.50167 -0.460176,3.99961 -1.448256,1.79204 1.448256,-1.79204 0.781306,2.54557 1.584636,1.4439 -1.584636,-1.4439 -0.781306,-2.54557 0.460176,-3.99961 2.351313,2.64378 0.672653,2.30617 -0.672653,-2.30617 2.326806,1.14905 1.119508,2.00243 -1.119508,-2.00243 -2.326806,-1.14905 -2.351313,-2.64378 -1.347354,-4.50167 1.224556,-5.1334 4.020708,-4.46552 6.359566,-3.06705 7.847721,1.3485 7.609434,8.97855 -13.386669,0.44565 -6.974646,-4.96204 -2.970392,-5.77472 0.02557,-3.67415 1.238774,-2.56227 -1.238774,2.56227 -1.179104,-2.65831 -1.933347,-1.13567 1.933347,1.13567 1.179104,2.65831 -0.02557,3.67415 -4.002349,-2.52832 -0.822815,-2.36695 0.822815,2.36695 -3.308353,-0.69233 -1.980783,-1.38331 1.980783,1.38331 3.308353,0.69233 4.002349,2.52832 2.970392,5.77472 -7.539841,-1.47724 -3.173196,-3.83002 -0.404379,-4.23557 1.520821,-3.1256 -0.286262,-2.31046 0.286262,2.31046 -1.520821,3.1256 -2.2162,-2.74589 -0.747,-2.3 0.747,2.3 -1.943705,-1.02553 1.943705,1.02553 2.2162,2.74589 0.404379,4.23557 -2.664844,-0.4921 -2.232114,0.67706 2.232114,-0.67706 2.664844,0.4921 3.173196,3.83002 -4.444528,1.94189 -3.6001,0.13538 -1.792784,-1.33773 1.792784,1.33773 -2.836754,1.37381 -2.2794048,-0.0789 2.2794048,0.0789 -1.3621588,2.47814 1.3621588,-2.47814 2.836754,-1.37381 3.6001,-0.13538 -1.934894,3.35961 0.30895,2.56684 1.115789,1.98099 -1.115789,-1.98099 -0.30895,-2.56684 1.934894,-3.35961 4.444528,-1.94189 7.539841,1.47724 6.974646,4.96204 -6.870348,5.49585 -5.948487,0.58632 -3.447216,-2.03028 -1.318387,-2.52327 -0.128109,-2.26274 0.128109,2.26274 1.318387,2.52327 -3.002253,0.16647 -2.541745,-0.91262 -1.374399,-1.61846 1.374399,1.61846 2.541745,0.91262 3.002253,-0.16647 3.447216,2.03028 -2.738731,2.72001 -2.395501,0.70924 2.395501,-0.70924 -0.621572,3.03649 -1.602868,2.09143 -2.026793,0.99633 2.026793,-0.99633 -0.04759,2.31564 0.04759,-2.31564 1.602868,-2.09143 0.707701,2.3053 -0.707701,-2.3053 0.621572,-3.03649 2.738731,-2.72001 5.948487,-0.58632 -3.26289,7.14009 -3.746135,2.75369 -3.534486,0.81852 -1.984469,1.30841 1.984469,-1.30841 3.534486,-0.81852 -0.886913,2.74594 -1.453291,1.73678 1.453291,-1.73678 0.886913,-2.74594 3.746135,-2.75369 0.731206,3.86714 -0.634522,2.7871 0.634522,-2.7871 2.289559,2.46403 0.614612,2.40171 -0.614612,-2.40171 2.415753,0.86131 2.253581,-0.25453 -2.253581,0.25453 -2.415753,-0.86131 -2.289559,-2.46403 -0.731206,-3.86714 3.26289,-7.14009 6.870348,-5.49585 13.386669,-0.44565 14.258841,6.44984 13.63033,16.29992 v 26.45833"
         style="fill:none;fill-opacity:1;stroke:#002a00;stroke-width:1.26499999;stroke-linecap:butt;stroke-linejoin:miter;stroke-miterlimit:4;stroke-dasharray:none;stroke-opacity:1"
         id="path976" />
      <path
         inkscape:connector-curvature="0"
         id="path1000"
         style="fill:none;fill-opacity:1;stroke:#002a00;stroke-width:1.26499999;stroke-linecap:butt;stroke-linejoin:miter;stroke-miterlimit:4;stroke-dasharray:none;stroke-opacity:1"
         d="m 77.241858,275.96647 v -26.45833 l 11.9526,-14.25748 13.190942,-4.08238 9.75863,0.78193 4.71077,3.39678 1.15241,2.81211 -0.57554,2.57423 0.59218,2.04708 -0.59218,-2.04708 0.57554,-2.57423 -1.15241,-2.81211 3.40061,0.64237 2.16327,1.53741 -2.16327,-1.53741 2.72431,-0.87931 2.39366,0.4406 -2.39366,-0.4406 -2.72431,0.87931 -3.40061,-0.64237 -4.71077,-3.39678 7.59142,-3.2882 4.61287,0.13758 2.60273,1.4809 1.00205,2.24814 -0.18926,2.19456 0.18926,-2.19456 -1.00205,-2.24814 2.61927,-0.0611 2.04092,1.16504 -2.04092,-1.16504 -2.61927,0.0611 -2.60273,-1.4809 2.45902,-1.74415 2.17205,0.14103 -2.17205,-0.14103 -2.45902,1.74415 -4.61287,-0.13758 3.74403,-4.41015 4.83897,-0.87801 3.14188,1.35681 1.74121,1.90241 0.22898,2.26614 -0.22898,-2.26614 2.07921,0.85224 -2.07921,-0.85224 -1.74121,-1.90241 2.1405,-0.38313 -2.1405,0.38313 -3.14188,-1.35681 2.65602,-2.58368 0.92693,-2.58725 -0.31877,-2.35607 0.31877,2.35607 -0.92693,2.58725 -2.65602,2.58368 -4.83897,0.87801 1.01966,-4.23263 1.90744,-2.77348 -1.90744,2.77348 -0.94012,-2.05695 0.94012,2.05695 -1.01966,4.23263 -3.74403,4.41015 -7.59142,3.2882 -9.75863,-0.78193 4.7135,-6.97457 4.21899,-1.50844 3.2919,0.55944 1.60964,1.44927 -1.60964,-1.44927 2.31852,-1.21447 2.26191,-0.0274 -2.26191,0.0274 -2.31852,1.21447 -3.2919,-0.55944 1.44119,-2.3635 -1.44119,2.3635 -4.21899,1.50844 -0.0754,-5.71719 2.65634,-3.88721 3.37598,-1.63508 2.20739,0.17613 -2.20739,-0.17613 -3.37598,1.63508 0.51068,-3.01252 1.37742,-1.6584 -1.37742,1.6584 -1.16776,-2.13218 1.16776,2.13218 -0.51068,3.01252 -2.65634,3.88721 -2.4679,-3.12819 -0.62277,-3.15802 0.75576,-2.17681 -0.75576,2.17681 -1.81499,-1.4976 1.81499,1.4976 0.62277,3.15802 -2.41929,-1.16336 2.41929,1.16336 2.4679,3.12819 0.0754,5.71719 -4.7135,6.97457 -13.190942,4.08238 2.03667,-9.31741 3.63849,-5.14227 4.69179,-2.88088 2.763782,0.27701 -2.763782,-0.27701 1.515462,-3.13982 2.08486,-1.07224 -2.08486,1.07224 -0.3714,-2.18111 0.3714,2.18111 -1.515462,3.13982 -4.69179,2.88088 -0.0898,-4.62704 1.55496,-3.05971 2.34024,-1.53171 -2.34024,1.53171 -0.34384,-2.95307 0.34384,2.95307 -1.55496,3.05971 -2.39614,-3.04227 -0.23903,-2.11644 0.23903,2.11644 -3.26685,-1.01896 -2.21836,-1.86038 -0.5682,-2.25677 0.5682,2.25677 -2.40034,-0.86882 2.40034,0.86882 2.21836,1.86038 -2.02617,0.69129 2.02617,-0.69129 3.26685,1.01896 2.39614,3.04227 0.0898,4.62704 -3.63849,5.14227 -2.32511,-5.14872 0.61758,-4.0651 1.78435,-3.16203 2.35212,-1.51223 0.96065,-2.17196 1.6383,-1.34895 -1.6383,1.34895 -0.96065,2.17196 -2.35212,1.51223 0.0237,-2.36554 -0.0237,2.36554 -1.78435,3.16203 -1.02488,-3.19395 0.1708,-2.6285 -0.1708,2.6285 1.02488,3.19395 -0.61758,4.0651 -3.3969,-1.68315 -1.0758,-2.02693 1.0758,2.02693 -2.36934,-0.0975 2.36934,0.0975 3.3969,1.68315 2.32511,5.14872 -2.03667,9.31741 -11.9526,14.25748 -7.53309,-20.01981 2.33414,-12.28037 7.03383,-7.53666 6.39153,-2.77202 4.05503,0.31672 2.46858,2.27064 -2.46858,-2.27064 2.53934,-1.32967 0.90661,-2.00451 -0.90661,2.00451 -2.53934,1.32967 -4.05503,-0.31672 2.56503,-3.57809 3.68169,-0.95817 2.18837,0.9495 -2.18837,-0.9495 1.65785,-1.56798 -1.65785,1.56798 -3.68169,0.95817 0.0845,-3.46798 -1.39219,-1.79311 1.39219,1.79311 -0.0845,3.46798 -2.56503,3.57809 -6.39153,2.77202 1.48164,-6.00321 4.01104,-3.03995 3.7232,-0.84354 2.47212,0.64355 2.06465,-0.58583 -2.06465,0.58583 -2.47212,-0.64355 2.43411,-1.85607 2.46319,-0.59069 -2.46319,0.59069 -2.43411,1.85607 -3.7232,0.84354 1.19077,-3.15816 1.86889,-1.50535 -1.86889,1.50535 -0.30223,-2.39136 0.30223,2.39136 -1.19077,3.15816 -4.01104,3.03995 -0.85518,-3.03877 0.76044,-2.18061 -0.76044,2.18061 -1.40791,-1.8793 1.40791,1.8793 0.85518,3.03877 -1.48164,6.00321 -7.03383,7.53666 -2.03221,-10.21783 1.87962,-8.94375 4.25766,-6.1732 4.77716,-3.05869 3.17822,0.10553 1.9323,1.41702 -1.9323,-1.41702 -3.17822,-0.10553 1.34261,-3.82147 2.85038,-2.20253 2.75423,-0.46431 2.41436,0.65155 -2.41436,-0.65155 -2.75423,0.46431 1.07219,-1.87413 -1.07219,1.87413 -2.85038,2.20253 -0.36596,-2.69093 0.36596,2.69093 -1.34261,3.82147 -4.77716,3.05869 0.88706,-4.99168 2.81207,-3.58445 2.84695,-0.79472 1.8423,-1.31958 -1.8423,1.31958 -2.84695,0.79472 -0.0237,-2.68653 1.10416,-1.97049 -1.10416,1.97049 0.0237,2.68653 -2.81207,3.58445 -0.53011,-2.59319 0.70515,-2.04415 -0.70515,2.04415 0.53011,2.59319 -0.88706,4.99168 -4.25766,6.1732 -1.82595,-6.56477 0.64935,-4.64368 1.65321,-2.70142 -1.65321,2.70142 -1.63007,-3.04183 0.28313,-2.43221 -0.28313,2.43221 1.63007,3.04183 -0.64935,4.64368 -2.69796,-2.29454 -0.68369,-2.22928 0.68369,2.22928 -2.69222,-0.24502 -1.65985,-1.58364 1.65985,1.58364 2.69222,0.24502 2.69796,2.29454 1.82595,6.56477 -1.87962,8.94375 -5.72534,-6.95933 -0.12543,-4.63387 1.59077,-2.1395 -1.59077,2.1395 -1.41481,-2.09793 -1.84946,-1.31592 1.84946,1.31592 1.41481,2.09793 0.12543,4.63387 -6.013721,-1.61541 -4.37756,-3.19766 -1.068865,-3.05435 0.268137,-2.55884 -0.268137,2.55884 -1.880726,-1.58152 1.880726,1.58152 1.068865,3.05435 -2.783443,-0.21163 -1.986326,1.19361 1.986326,-1.19361 2.783443,0.21163 4.37756,3.19766 -4.511918,1.89567 -3.446894,-0.0178 -1.990993,1.56368 1.990993,-1.56368 3.446894,0.0178 -1.662809,2.93591 -0.145626,2.97591 -1.389925,1.70088 1.389925,-1.70088 0.145626,-2.97591 1.662809,-2.93591 4.511918,-1.89567 6.013721,1.61541 5.72534,6.95933 2.03221,10.21783 -2.33414,12.28037 -9.17628,-5.49756 -4.567794,-7.18559 0.811633,-6.59884 3.458381,-3.35963 3.54226,-1.11074 3.01623,0.40556 2.03298,-1.02533 -2.03298,1.02533 -3.01623,-0.40556 2.3931,-2.26916 -2.3931,2.26916 -3.54226,1.11074 0.57279,-4.23856 1.87298,-1.95902 -1.87298,1.95902 -1.69034,-3.11914 0.0186,-2.13044 -0.0186,2.13044 -2.045837,-1.17361 2.045837,1.17361 1.69034,3.11914 -0.57279,4.23856 -3.458381,3.35963 -1.153749,-4.21431 1.005782,-3.28547 -1.005782,3.28547 -2.467677,-1.80471 -0.620996,-2.32512 0.620996,2.32512 -2.639172,-0.19837 -2.106229,0.65489 2.106229,-0.65489 2.639172,0.19837 2.467677,1.80471 1.153749,4.21431 -0.811633,6.59884 -5.819894,-2.89459 -3.725356,-4.33187 -0.943889,-3.87533 -1.682716,-2.08468 1.682716,2.08468 0.943889,3.87533 -3.626393,-0.64595 -2.067486,-2.17004 2.067486,2.17004 -2.958016,0.89274 2.958016,-0.89274 3.626393,0.64595 3.725356,4.33187 -4.50025,0.93551 -2.470965,-0.63324 -1.463421,-1.66234 1.463421,1.66234 2.470965,0.63324 -3.352111,2.29247 -2.458711,0.58378 2.458711,-0.58378 -1.824044,2.7463 -2.039353,1.10355 2.039353,-1.10355 0.22942,2.28542 -0.22942,-2.28542 1.824044,-2.7463 3.352111,-2.29247 4.50025,-0.93551 5.819894,2.89459 4.567794,7.18559 -5.322919,-0.88932 -3.355472,-2.98461 -0.711303,-2.21994 0.711303,2.21994 -3.565957,-0.3136 -2.606633,-1.21967 -1.359175,-1.71248 1.359175,1.71248 2.606633,1.21967 -2.749463,0.8467 -2.156715,-0.26556 2.156715,0.26556 2.749463,-0.8467 3.565957,0.3136 3.355472,2.98461 -3.268676,0.7669 -2.3557,-0.4947 2.3557,0.4947 -1.791721,1.9046 1.791721,-1.9046 3.268676,-0.7669 5.322919,0.88932 9.17628,5.49756 7.53309,20.01981 v 26.45833" />
      <path
         inkscape:connector-curvature="0"
         d="m 77.241858,275.96647 v -26.45833 l 7.28688,-19.03858 9.92141,-8.62101 10.944812,-2.7862 6.15889,2.30525 4.36787,3.83243 1.13859,4.00738 -1.13821,3.24996 -2.3213,1.67742 -2.40552,-0.10891 -1.66802,0.84252 -1.39752,-0.12827 1.39752,0.12827 -0.7942,1.06688 0.7942,-1.06688 1.66802,-0.84252 2.40552,0.10891 -0.80102,1.48999 -0.0891,1.44994 0.0891,-1.44994 0.80102,-1.48999 2.3213,-1.67742 0.69556,2.22796 -0.22095,1.45908 0.22095,-1.45908 1.6057,1.21824 0.44214,1.694 -0.44214,-1.694 -1.6057,-1.21824 -0.69556,-2.22796 1.13821,-3.24996 2.29954,2.29531 1.12994,2.57385 0.077,1.55384 -0.49904,1.26442 0.49904,-1.26442 -0.077,-1.55384 1.19593,0.94596 -1.19593,-0.94596 -1.12994,-2.57385 1.98924,0.6094 1.23309,1.08832 0.21338,1.34127 -0.21338,-1.34127 1.44539,0.13592 -1.44539,-0.13592 -1.23309,-1.08832 1.56663,-0.43643 -1.56663,0.43643 -1.98924,-0.6094 -2.29954,-2.29531 -1.13859,-4.00738 4.0123,0.38068 2.80019,1.35137 1.66961,1.77633 0.47729,1.67148 -0.47729,-1.67148 -1.66961,-1.77633 2.1517,-0.29665 1.62488,0.49186 1.3845,-0.43707 -1.3845,0.43707 -1.62488,-0.49186 -2.1517,0.29665 -2.80019,-1.35137 3.26226,-1.54812 2.83316,0.16587 1.72324,1.3043 0.81669,1.75645 -0.19581,1.31089 0.19581,-1.31089 1.40599,0.94256 1.39583,0.32717 -1.39583,-0.32717 -1.40599,-0.94256 -0.81669,-1.75645 -1.72324,-1.3043 1.48586,-0.84497 1.36944,-0.0833 -1.36944,0.0833 0.84441,-1.17394 -0.84441,1.17394 -1.48586,0.84497 -2.83316,-0.16587 1.15736,-1.79873 1.31259,-0.75833 -1.31259,0.75833 -0.0299,-1.87165 0.0299,1.87165 -1.15736,1.79873 -3.26226,1.54812 -4.0123,-0.38068 -4.36787,-3.83243 5.60265,-1.44678 5.18083,0.51597 3.25729,2.98861 0.54224,3.57344 -1.19435,2.57877 -1.40365,1.12259 -0.63963,1.24322 0.63963,-1.24322 1.40365,-1.12259 0.0613,2.29475 0.99409,1.5558 -0.99409,-1.5558 -0.0613,-2.29475 1.19435,-2.57877 1.84207,2.17224 0.31866,1.50143 -0.31866,-1.50143 1.91055,0.71733 -1.91055,-0.71733 -1.84207,-2.17224 -0.54224,-3.57344 3.68588,0.36203 1.91539,1.63706 0.80587,1.6855 0.14375,1.58014 -0.14375,-1.58014 1.21605,0.89319 -1.21605,-0.89319 -0.80587,-1.6855 2.02026,0.43328 1.46418,1.05709 0.59325,1.45999 -0.59325,-1.45999 -1.46418,-1.05709 -2.02026,-0.43328 -1.91539,-1.63706 2.03299,-0.60456 1.41198,0.19921 -1.41198,-0.19921 0.83187,-1.07712 -0.83187,1.07712 -2.03299,0.60456 -3.68588,-0.36203 -3.25729,-2.98861 3.87084,-1.5071 2.13771,0.49087 1.26991,-0.61861 -1.26991,0.61861 -2.13771,-0.49087 1.88413,-2.44966 2.24292,-1.36373 2.08529,0.12357 1.08885,0.94615 -1.08885,-0.94615 1.44264,-0.6399 -1.44264,0.6399 -2.08529,-0.12357 0.80617,-1.7063 -0.80617,1.7063 -2.24292,1.36373 0.40574,-2.50882 0.95049,-1.05563 -0.95049,1.05563 -0.65736,-1.18573 0.65736,1.18573 -0.40574,2.50882 -1.88413,2.44966 -3.87084,1.5071 -5.18083,-0.51597 3.04491,-2.59146 3.34194,-0.7267 2.24425,1.00082 1.24452,1.5107 -1.24452,-1.5107 1.29659,-0.36831 -1.29659,0.36831 -2.24425,-1.00082 1.56118,-1.64162 1.51074,-0.42774 -1.51074,0.42774 0.31267,-1.34481 -0.31267,1.34481 -1.56118,1.64162 -3.34194,0.7267 0.59422,-3.48629 1.43924,-1.80932 1.84172,-0.83052 -1.84172,0.83052 0.59614,-1.85703 1.25972,-1.09841 0.50097,-1.23364 -0.50097,1.23364 -1.25972,1.09841 -0.0734,-1.47856 0.0734,1.47856 -0.59614,1.85703 -1.43924,1.80932 -0.82679,-2.59494 0.53934,-1.58613 -0.53934,1.58613 -0.9116,-1.09418 0.9116,1.09418 0.82679,2.59494 -0.59422,3.48629 -3.04491,2.59146 -5.60265,1.44678 -6.15889,-2.30525 6.55171,-5.92745 4.83082,-0.98735 3.2616,1.06628 1.82645,2.48893 0.16414,2.09392 0.74215,1.24701 -0.74215,-1.24701 -0.16414,-2.09392 1.90407,0.93308 0.56234,1.25703 -0.56234,-1.25703 1.51119,-0.0268 -1.51119,0.0268 -1.90407,-0.93308 -1.82645,-2.48893 2.30521,-0.10745 1.54056,1.10845 0.41597,1.32862 -0.41597,-1.32862 1.54757,0.0118 -1.54757,-0.0118 -1.54056,-1.10845 1.33295,-0.75503 1.37557,-0.0484 -1.37557,0.0484 -1.33295,0.75503 -2.30521,0.10745 -3.2616,-1.06628 2.42714,-2.60869 1.9631,-0.91721 1.45964,0.29704 -1.45964,-0.29704 0.84463,-1.02788 -0.84463,1.02788 -1.9631,0.91721 0.90575,-2.26454 -0.23244,-1.76972 0.48563,-1.39629 -0.48563,1.39629 -0.73648,-1.24618 0.73648,1.24618 0.23244,1.76972 -0.90575,2.26454 -2.42714,2.60869 -4.83082,0.98735 0.69556,-4.61489 1.55118,-2.62707 2.11936,-0.84327 1.37817,0.42998 -1.37817,-0.42998 -2.11936,0.84327 -0.19844,-2.5602 0.41459,-1.33135 -0.41459,1.33135 -0.66865,-1.32029 0.66865,1.32029 0.19844,2.5602 -1.55118,2.62707 -1.09127,-2.88769 0.43963,-2.42318 1.0205,-1.03281 -1.0205,1.03281 -0.52547,-1.41912 0.52547,1.41912 -0.43963,2.42318 -1.42126,-1.17518 -1.42234,0.009 1.42234,-0.009 1.42126,1.17518 1.09127,2.88769 -0.69556,4.61489 -6.55171,5.92745 -10.944812,2.7862 3.87061,-10.28792 5.697962,-4.27653 4.12995,0.0894 1.88279,1.601 0.46531,2.05074 -0.28432,1.29496 0.28432,-1.29496 -0.46531,-2.05074 1.79966,0.40693 1.20014,0.87368 1.32114,0.18055 -1.32114,-0.18055 -1.20014,-0.87368 1.59133,-0.24752 1.29126,0.34362 -1.29126,-0.34362 0.99476,-0.94336 -0.99476,0.94336 -1.59133,0.24752 -1.79966,-0.40693 -1.88279,-1.601 2.96138,-1.04311 1.74727,0.41641 -1.74727,-0.41641 1.29882,-1.3302 1.42833,-0.18006 -1.42833,0.18006 -1.29882,1.3302 -2.96138,1.04311 -4.12995,-0.0894 2.68048,-5.57495 2.764,-1.64418 1.87688,-0.26974 -1.87688,0.26974 0.81184,-2.0999 1.24792,-0.82976 -1.24792,0.82976 -0.34362,-1.68122 -0.8683,-1.23694 0.8683,1.23694 0.34362,1.68122 -0.81184,2.0999 -2.764,1.64418 -0.53043,-3.39957 1.36175,-2.35875 2.0991,-1.01764 1.81162,-0.12011 1.41832,0.46018 -1.41832,-0.46018 -1.81162,0.12011 -2.0991,1.01764 0.38451,-2.39671 1.11989,-1.51916 -1.11989,1.51916 -0.38451,2.39671 -1.36175,2.35875 -1.17599,-1.74384 -0.41132,-1.74063 0.273,-1.45315 -0.273,1.45315 0.41132,1.74063 1.17599,1.74384 0.53043,3.39957 -2.68048,5.57495 -5.697962,4.27653 -0.0983,-8.1239 2.811522,-5.02488 2.92673,-1.88207 1.9802,-0.36643 -1.9802,0.36643 0.69321,-1.95133 -0.032,-1.81076 0.59293,-1.30547 -0.59293,1.30547 -0.69356,-1.40922 0.69356,1.40922 0.032,1.81076 -0.69321,1.95133 -2.92673,1.88207 -0.4485,-3.47902 1.24242,-2.61666 1.5437,-1.5176 1.63437,-0.21111 1.01015,-1.00725 -1.01015,1.00725 -1.63437,0.21111 0.43533,-1.45453 -0.43533,1.45453 -1.5437,1.5176 -0.36106,-1.44503 -0.78522,-1.07912 0.78522,1.07912 0.36106,1.44503 -1.24242,2.61666 -1.826182,-2.488 -0.2156,-2.5505 0.56488,-1.82658 -0.56488,1.82658 -1.36577,-1.46971 -0.45895,-1.30991 0.45895,1.30991 -1.62702,-0.41396 1.62702,0.41396 1.36577,1.46971 0.2156,2.5505 -1.88387,-1.05606 -0.84604,-1.60292 -1.17,-0.65745 1.17,0.65745 0.84604,1.60292 -1.8367,0.25038 1.8367,-0.25038 1.88387,1.05606 1.826182,2.488 0.4485,3.47902 -2.811522,5.02488 -4.5104,-5.71219 -0.48505,-4.35019 1.21928,-2.13234 -0.25891,-1.83911 0.62327,-1.43068 -0.62327,1.43068 -0.77748,-1.17442 0.77748,1.17442 0.25891,1.83911 -1.21928,2.13234 -2.08924,-3.16659 0.14855,-2.17703 0.90653,-1.09317 -0.90653,1.09317 -0.69527,-1.618 0.69527,1.618 -0.14855,2.17703 -2.99424,-1.45992 -0.69048,-1.53118 -1.0643,-0.93207 1.0643,0.93207 0.69048,1.53118 -2.77742,0.39683 -1.58272,-0.36836 1.58272,0.36836 -1.90104,1.08439 -0.79232,1.6734 -1.22826,0.62967 1.22826,-0.62967 0.79232,-1.6734 1.90104,-1.08439 2.77742,-0.39683 2.99424,1.45992 2.08924,3.16659 0.48505,4.35019 -6.31537,-1.31109 -4.44856,-2.878 -2.56751,-3.6429 -0.30502,-2.24856 0.6541,-1.44436 0.0399,-1.36646 -0.0399,1.36646 -0.6541,1.44436 -0.80257,-1.09069 0.80257,1.09069 0.30502,2.24856 -2.60183,-1.49555 -0.89614,-1.2437 0.89614,1.2437 -2.14001,0.19193 -1.42893,-0.91905 -0.48651,-1.36989 0.48651,1.36989 1.42893,0.91905 -1.15683,0.89748 1.15683,-0.89748 2.14001,-0.19193 2.60183,1.49555 2.56751,3.6429 -2.86159,-0.43755 -1.54728,-1.63619 -0.4504,-1.87037 0.4504,1.87037 -1.39979,-0.19697 1.39979,0.19697 1.54728,1.63619 -1.82601,0.66365 -1.12752,0.98432 -0.3858,1.27131 0.3858,-1.27131 1.12752,-0.98432 1.82601,-0.66365 2.86159,0.43755 4.44856,2.878 -3.82249,1.62554 -2.62753,-0.74951 -1.21139,-1.0796 1.21139,1.0796 -2.03523,0.26385 -1.43517,-0.34032 1.43517,0.34032 -1.30736,0.92033 -1.30181,0.30881 1.30181,-0.30881 1.30736,-0.92033 2.03523,-0.26385 2.62753,0.74951 -1.9436,3.1234 -2.28082,0.77119 -1.35339,-0.35074 1.35339,0.35074 -1.58232,1.41999 -1.39694,0.37024 1.39694,-0.37024 1.58232,-1.41999 2.28082,-0.77119 0.15974,2.27288 -1.03547,1.75542 -1.48774,1.00944 -0.76745,1.10114 0.76745,-1.10114 1.48774,-1.00944 -0.20358,1.562 0.56092,1.24612 -0.56092,-1.24612 0.20358,-1.562 1.03547,-1.75542 0.99827,1.19049 -0.99827,-1.19049 -0.15974,-2.27288 1.9436,-3.1234 3.82249,-1.62554 6.31537,1.31109 4.5104,5.71219 0.0983,8.1239 -3.87061,10.28792 -9.92141,8.62101 -4.11151,-16.2642 2.50422,-8.07929 4.67294,-4.88023 4.6477,-0.83809 3.83897,1.76585 1.74481,2.46145 0.2408,1.79485 -0.39108,1.39788 0.39108,-1.39788 -0.2408,-1.79485 1.91315,1.06623 0.988102,1.24002 -0.988102,-1.24002 1.743082,-0.0853 -1.743082,0.0853 -1.91315,-1.06623 -1.74481,-2.46145 2.42559,0.0556 1.512602,0.9114 0.75289,1.10253 -0.75289,-1.10253 -1.512602,-0.9114 1.26862,-0.93666 -1.26862,0.93666 -2.42559,-0.0556 -3.83897,-1.76585 2.6731,-2.33049 2.59123,-0.28957 1.21158,0.57939 -1.21158,-0.57939 1.57438,-1.30714 0.44603,-1.57843 -0.44603,1.57843 -1.57438,1.30714 -2.59123,0.28957 1.16467,-2.85814 1.71919,-1.20531 1.58005,-0.34119 1.177582,-0.82387 -1.177582,0.82387 -1.58005,0.34119 0.52721,-1.7857 -0.22124,-1.325 0.22124,1.325 -0.52721,1.7857 -1.71919,1.20531 -0.14861,-2.71917 1.15773,-1.75249 -0.19031,-1.87038 -0.724,-1.27084 0.724,1.27084 0.19031,1.87038 -1.15773,1.75249 -1.50729,-1.85353 -0.57123,-2.04252 0.36055,-1.57375 -0.36055,1.57375 -1.11576,-1.35853 1.11576,1.35853 0.57123,2.04252 -1.77997,-0.39318 -1.49382,0.62641 1.49382,-0.62641 1.77997,0.39318 1.50729,1.85353 0.14861,2.71917 -1.16467,2.85814 -2.6731,2.33049 -4.6477,0.83809 1.21858,-5.19801 2.78896,-2.72887 2.49979,-0.24878 1.65152,0.7612 -1.65152,-0.7612 1.2809,-1.20835 0.52355,-1.43783 -0.52355,1.43783 -1.2809,1.20835 -2.49979,0.24878 0.58222,-2.01737 0.89392,-1.126 -0.89392,1.126 -0.22265,-1.33799 0.22265,1.33799 -0.58222,2.01737 -2.78896,2.72887 -0.80311,-3.26633 0.2724,-1.84245 1.03753,-0.94175 -1.03753,0.94175 -0.2724,1.84245 -1.06959,-1.34176 -0.31309,-1.32815 0.31309,1.32815 1.06959,1.34176 0.80311,3.26633 -1.21858,5.19801 -4.67294,4.88023 -2.37561,-6.35203 0.10585,-4.19677 1.59941,-3.12317 2.40845,-1.73355 1.5459,0.0678 -1.5459,-0.0678 0.86156,-1.90237 1.35206,-0.98816 1.47319,-0.23208 -1.47319,0.23208 0.73193,-1.14147 -0.73193,1.14147 -1.35206,0.98816 -0.86156,1.90237 -2.40845,1.73355 -0.31288,-2.32077 0.67373,-1.69225 -0.67373,1.69225 -1.13567,-1.1975 1.13567,1.1975 0.31288,2.32077 -1.59941,3.12317 -1.14614,-2.28662 0.31956,-1.36024 -0.31956,1.36024 -1.82072,-0.94412 -0.74828,-1.67319 -1.26911,-1.00165 -1.35687,-0.0718 1.35687,0.0718 1.26911,1.00165 0.74828,1.67319 -1.49736,-0.0462 1.49736,0.0462 1.82072,0.94412 1.14614,2.28662 -0.10585,4.19677 -3.99632,-3.39772 -0.93709,-3.74119 0.57929,-1.92355 0.89176,-1.08846 -0.89176,1.08846 -0.53721,-1.42406 0.53721,1.42406 -0.57929,1.92355 -1.14886,-1.57719 -0.26706,-1.63533 -0.89666,-1.05018 0.89666,1.05018 0.26706,1.63533 -1.28157,-0.6566 1.28157,0.6566 1.14886,1.57719 0.93709,3.74119 -3.13031,-0.80898 -1.64839,-1.47136 -0.49574,-1.35914 0.49574,1.35914 -1.70337,-0.28123 1.70337,0.28123 1.64839,1.47136 -1.73729,0.34522 -1.41222,-0.53583 -0.77932,-1.07294 0.77932,1.07294 1.41222,0.53583 1.73729,-0.34522 3.13031,0.80898 3.99632,3.39772 2.37561,6.35203 -2.50422,8.07929 -7.84036,-8.02365 -0.90077,-8.71914 3.43697,-6.06555 4.06822,-1.86878 2.19426,0.47237 1.48464,1.35782 0.52997,1.41176 -0.52997,-1.41176 1.35158,0.35072 -1.35158,-0.35072 -1.48464,-1.35782 1.70307,-0.51104 1.44005,0.27298 -1.44005,-0.27298 0.93565,-1.03835 -0.93565,1.03835 -1.70307,0.51104 -2.19426,-0.47237 1.77672,-2.51363 1.85582,-0.99482 1.58495,0.0191 -1.58495,-0.0191 0.75124,-1.43398 -0.75124,1.43398 -1.85582,0.99482 0.13103,-2.05577 1.1143,-1.40804 1.3351,-0.69847 -1.3351,0.69847 -1.1143,1.40804 -0.41178,-1.28958 0.41178,1.28958 -0.13103,2.05577 -1.77672,2.51363 -4.06822,1.86878 -0.92236,-5.15133 1.74826,-4.30783 2.77487,-2.52962 2.96448,-0.23449 2.12034,1.00386 0.70914,1.23139 -0.70914,-1.23139 2.00641,0.058 1.21247,-0.68484 -1.21247,0.68484 -2.00641,-0.058 -2.12034,-1.00386 1.59031,-0.95239 -1.59031,0.95239 -2.96448,0.23449 0.42927,-2.47719 0.77635,-1.23075 -0.77635,1.23075 -0.67479,-1.75158 -0.006,-1.3354 0.006,1.3354 -0.96606,-1.03008 0.96606,1.03008 0.67479,1.75158 -0.42927,2.47719 -2.77487,2.52962 -0.95374,-3.93203 0.77568,-2.28343 1.57955,-1.34178 1.52467,-0.0282 1.12571,-0.74738 -1.12571,0.74738 -1.52467,0.0282 -1.57955,1.34178 -0.34341,-2.07646 0.71414,-1.5056 -0.71414,1.5056 -0.9065,-1.32612 0.0155,-1.40956 -0.0155,1.40956 0.9065,1.32612 0.34341,2.07646 -0.77568,2.28343 -2.03208,-2.99538 -0.26979,-2.8437 0.53844,-1.37187 -0.53844,1.37187 -1.43252,-1.83961 -0.17739,-1.35262 0.17739,1.35262 1.43252,1.83961 0.26979,2.8437 -3.11878,-0.91482 -1.85662,-1.62592 -0.66467,-1.26255 0.66467,1.26255 -1.6989,-0.60392 -1.03323,-1.12301 1.03323,1.12301 -1.45749,0.47592 -1.29486,-0.37553 1.29486,0.37553 1.45749,-0.47592 1.6989,0.60392 1.85662,1.62592 -2.33046,0.40695 -1.98282,-0.69289 -1.22845,-1.37908 -0.082,-1.57897 0.082,1.57897 -1.54475,-0.58589 1.54475,0.58589 1.22845,1.37908 1.98282,0.69289 -1.16176,0.87748 1.16176,-0.87748 2.33046,-0.40695 3.11878,0.91482 2.03208,2.99538 0.95374,3.93203 -1.74826,4.30783 -1.89007,-1.87485 -0.49376,-1.60277 0.49376,1.60277 -1.64856,-0.3315 -1.15203,-0.80022 1.15203,0.80022 1.64856,0.3315 1.89007,1.87485 0.92236,5.15133 -3.43697,6.06555 -2.79983,-5.68098 -0.4802,-4.46692 0.88959,-2.09192 -0.15263,-1.51756 0.15263,1.51756 -0.88959,2.09192 -1.28266,-2.0637 -0.0811,-1.59008 0.0811,1.59008 -1.74947,-0.78938 1.74947,0.78938 1.28266,2.0637 0.4802,4.46692 -3.11671,-2.00713 -1.46172,-2.1975 -0.31624,-1.96622 0.47778,-1.52393 1.13714,-0.8383 -1.13714,0.8383 -0.38966,-1.26778 0.38966,1.26778 -0.47778,1.52393 0.31624,1.96622 -1.92547,-1.34472 -1.01247,-1.52136 -0.27739,-1.60317 -0.96445,-1.05585 0.96445,1.05585 0.27739,1.60317 -1.42042,-0.73678 -1.408309,0.12381 1.408309,-0.12381 1.42042,0.73678 1.01247,1.52136 -1.71484,0.0795 1.71484,-0.0795 1.92547,1.34472 1.46172,2.1975 -1.97131,0.16355 1.97131,-0.16355 3.11671,2.00713 2.79983,5.68098 0.90077,8.71914 -8.21483,-2.35972 -4.16262,-4.27388 -0.3787,-3.10443 0.73145,-1.44168 -0.73145,1.44168 -0.93843,-1.60822 0.14881,-1.6456 -0.14881,1.6456 -1.280012,-0.79685 1.280012,0.79685 0.93843,1.60822 0.3787,3.10443 -5.0466,-1.59876 -2.538847,-2.26719 -1.099938,-2.4628 0.139885,-1.74043 -0.139885,1.74043 -1.699967,-1.38924 1.699967,1.38924 1.099938,2.4628 -1.860842,-0.72291 -1.652067,0.20681 1.652067,-0.20681 1.860842,0.72291 2.538847,2.26719 -2.646652,0.14508 -1.205511,-0.56972 1.205511,0.56972 -1.462618,0.88118 1.462618,-0.88118 2.646652,-0.14508 5.0466,1.59876 4.16262,4.27388 -6.169353,1.8803 -4.248258,-0.25205 -2.0336,-1.53408 -0.793444,-1.25174 0.793444,1.25174 -2.283599,-0.15175 -1.689689,-0.88718 1.689689,0.88718 -1.677403,0.62621 -1.429722,-0.36494 1.429722,0.36494 -0.910355,1.30836 0.910355,-1.30836 1.677403,-0.62621 2.283599,0.15175 2.0336,1.53408 -2.642749,0.97268 -1.843363,-0.44135 -1.347056,0.54826 1.347056,-0.54826 1.843363,0.44135 -1.453392,1.98658 -1.37366,0.88183 1.37366,-0.88183 0.07912,1.46135 -0.07912,-1.46135 1.453392,-1.98658 2.642749,-0.97268 4.248258,0.25205 -2.996757,2.45152 -2.620088,0.24761 -1.786267,-0.86517 -1.701218,0.3625 1.701218,-0.3625 1.786267,0.86517 -1.461837,1.37836 -1.305718,0.38143 1.305718,-0.38143 -0.266998,1.41671 0.266998,-1.41671 1.461837,-1.37836 2.620088,-0.24761 -1.294289,2.33771 -1.658442,1.28739 -0.452553,1.30119 0.452553,-1.30119 1.658442,-1.28739 0.01465,2.37498 -0.611209,1.39427 -0.945786,0.9515 0.945786,-0.9515 0.611209,-1.39427 0.933773,1.51048 1.222322,0.64521 -1.222322,-0.64521 -0.933773,-1.51048 -0.01465,-2.37498 1.294289,-2.33771 2.996757,-2.45152 6.169353,-1.8803 8.21483,2.35972 7.84036,8.02365 4.11151,16.2642 -7.28688,19.03858 -8.48499,-11.99363 -2.04211,-8.11695 1.51258,-4.48313 2.6836,-2.26889 2.04863,-0.27413 1.51639,0.77093 -1.51639,-0.77093 1.49629,-1.10118 -1.49629,1.10118 -2.04863,0.27413 1.19712,-2.22076 1.97394,-0.85291 1.13076,-1.15321 0.26955,-1.41756 -0.26955,1.41756 -1.13076,1.15321 -1.97394,0.85291 -0.14767,-1.75949 -0.69488,-1.27331 0.69488,1.27331 0.14767,1.75949 -1.19712,2.22076 -2.6836,2.26889 -0.75964,-2.62225 0.65242,-1.67169 1.12037,-0.82923 -1.12037,0.82923 -0.17404,-1.48767 0.17404,1.48767 -0.65242,1.67169 -1.33379,-1.25305 -0.57025,-1.34015 0.57025,1.34015 1.33379,1.25305 0.75964,2.62225 -1.51258,4.48313 -4.82424,-3.60509 -2.05454,-4.53684 0.4066,-3.73912 2.0889,-2.42692 1.55117,-0.4522 1.23421,0.50449 -1.23421,-0.50449 -1.55117,0.4522 0.10984,-2.5957 0.90306,-1.00058 -0.90306,1.00058 -0.10984,2.5957 -2.0889,2.42692 -1.23929,-1.97648 -0.274505,-1.50285 0.458925,-1.24449 -0.458925,1.24449 0.274505,1.50285 1.23929,1.97648 -0.4066,3.73912 -2.557918,-1.57421 -1.367616,-2.27259 0.105782,-1.56433 -0.105782,1.56433 -1.21947,-0.80382 1.21947,0.80382 1.367616,2.27259 -2.063737,0.0771 -1.31425,-0.49612 1.31425,0.49612 -1.327084,1.11935 -1.495275,0.41199 -1.118704,0.80898 1.118704,-0.80898 1.495275,-0.41199 1.327084,-1.11935 2.063737,-0.0771 2.557918,1.57421 2.05454,4.53684 -4.873582,-0.0315 -3.550632,-1.33125 -2.226168,-2.58649 -0.448484,-1.86072 0.448484,1.86072 -1.779864,-0.52075 -1.036525,-0.98789 1.036525,0.98789 -1.622959,0.19434 -1.267382,-0.47359 1.267382,0.47359 1.622959,-0.19434 1.779864,0.52075 2.226168,2.58649 -2.576942,0.69281 -1.648422,-0.53592 1.648422,0.53592 -1.700962,1.68067 -1.547462,0.45122 1.547462,-0.45122 1.700962,-1.68067 2.576942,-0.69281 3.550632,1.33125 -2.279747,1.6072 -1.921536,-0.0528 -1.145458,-0.97321 -0.442183,-1.26952 0.442183,1.26952 1.145458,0.97321 1.921536,0.0528 -0.690251,1.87961 0.465086,1.67796 -0.14754,1.52801 0.14754,-1.52801 -0.465086,-1.67796 0.690251,-1.87961 2.279747,-1.6072 4.873582,0.0315 4.82424,3.60509 2.04211,8.11695 -9.53278,-3.60628 -4.685854,-4.25909 -0.68114,-3.98683 0.581026,-2.89976 0.895033,-1.3435 -0.895033,1.3435 -0.512089,-1.62305 0.512089,1.62305 -0.581026,2.89976 -1.50807,-1.42873 1.50807,1.42873 0.68114,3.98683 -4.073436,-0.73759 -2.552025,-2.2876 -0.292337,-1.85129 0.586609,-1.35351 -0.586609,1.35351 -0.821379,-1.44545 -0.218324,-1.46159 0.218324,1.46159 0.821379,1.44545 0.292337,1.85129 -1.772428,-0.65587 -0.801475,-1.2798 0.136232,-1.3521 -0.136232,1.3521 0.801475,1.2798 1.772428,0.65587 2.552025,2.2876 -2.896918,0.63164 -2.016334,-0.91106 -1.129383,-1.22752 1.129383,1.22752 2.016334,0.91106 -1.715394,1.92152 -1.460395,0.75087 1.460395,-0.75087 -0.337986,1.95346 0.337986,-1.95346 1.715394,-1.92152 2.896918,-0.63164 4.073436,0.73759 4.685854,4.25909 -8.057727,0.52613 -3.686795,-2.18195 -1.915271,-2.83054 -0.07027,-1.78564 0.810494,-1.09096 -0.810494,1.09096 -0.707152,-1.1711 0.707152,1.1711 0.07027,1.78564 -2.437242,-0.82115 -1.038549,-1.13793 1.038549,1.13793 -2.077773,0.75637 -0.820081,1.41748 -1.285997,0.67875 1.285997,-0.67875 0.05046,1.40608 -0.05046,-1.40608 0.820081,-1.41748 2.077773,-0.75637 2.437242,0.82115 1.915271,2.83054 -3.425365,-0.45893 -1.468187,-1.50006 -0.437021,-1.59958 0.204526,-1.40376 -0.204526,1.40376 0.437021,1.59958 -1.421652,-0.36576 1.421652,0.36576 1.468187,1.50006 -2.541335,0.89457 -1.354326,-0.26192 1.354326,0.26192 -1.132643,1.28366 -0.485151,1.27489 0.485151,-1.27489 1.132643,-1.28366 2.541335,-0.89457 3.425365,0.45893 3.686795,2.18195 -3.939388,2.16844 -3.622121,0.0427 -1.88969,-0.80114 -1.001752,-1.10057 1.001752,1.10057 -1.422035,0.10611 1.422035,-0.10611 1.88969,0.80114 -2.63181,1.64088 -2.489074,-0.22303 -1.692962,-0.84746 -0.832324,-1.09371 0.832324,1.09371 -1.6451,0.12712 1.6451,-0.12712 1.692962,0.84746 -1.821477,0.83518 -0.679031,1.17045 0.679031,-1.17045 1.821477,-0.83518 2.489074,0.22303 -1.373304,1.97131 -1.409519,0.4978 1.409519,-0.4978 -0.26634,1.71224 -0.881783,1.12598 0.881783,-1.12598 0.26634,-1.71224 1.373304,-1.97131 2.63181,-1.64088 3.622121,-0.0427 -1.120667,1.98879 -1.608872,0.97354 -1.630023,0.23692 1.630023,-0.23692 -0.849421,1.0872 0.849421,-1.0872 1.608872,-0.97354 0.0258,1.65273 -0.0258,-1.65273 1.120667,-1.98879 3.939388,-2.16844 8.057727,-0.52613 9.53278,3.60628 8.48499,11.99363 v 26.45833"
         style="fill:none;fill-opacity:1;stroke:#002a00;stroke-width:1.26499999;stroke-linecap:butt;stroke-linejoin:miter;stroke-miterlimit:4;stroke-dasharray:none;stroke-opacity:1"
         id="path1026" />
    </g>
  </g>
</svg>
